<?xml version="1.0" encoding="UTF-8"?>
<svg version="1.1" xmlns="http://www.w3.org/2000/svg" width="500" height="500">
<path d="M0 0 C165 0 330 0 500 0 C500 165 500 330 500 500 C335 500 170 500 0 500 C0 335 0 170 0 0 Z " fill="#FEFEFE" transform="translate(0,0)"/>
<path d="M0 0 C0.85722656 -0.00773438 1.71445313 -0.01546875 2.59765625 -0.0234375 C4.9375 0.375 4.9375 0.375 6.703125 1.54296875 C8.39274224 4.05066016 8.44856304 6.06307165 8.625 9.0625 C8.69074219 10.05636719 8.75648438 11.05023438 8.82421875 12.07421875 C8.88029297 13.21310547 8.88029297 13.21310547 8.9375 14.375 C12.41762082 13.90259949 15.89639854 13.4209514 19.375 12.9375 C20.36822266 12.80279297 21.36144531 12.66808594 22.38476562 12.52929688 C23.32900391 12.39716797 24.27324219 12.26503906 25.24609375 12.12890625 C26.12064209 12.00845947 26.99519043 11.8880127 27.89624023 11.76391602 C29.92414505 11.57577798 29.92414505 11.57577798 30.9375 10.375 C34.24188909 10.0973556 37.56032134 10.14325012 40.875 10.125 C42.27395508 10.0940625 42.27395508 10.0940625 43.70117188 10.0625 C44.59255859 10.05734375 45.48394531 10.0521875 46.40234375 10.046875 C47.63392212 10.03285645 47.63392212 10.03285645 48.89038086 10.01855469 C49.56593018 10.13618164 50.24147949 10.25380859 50.9375 10.375 C53.3669516 14.0191774 53.09929575 16.08741272 52.9375 20.375 C52.22722656 20.71273437 51.51695312 21.05046875 50.78515625 21.3984375 C49.40650391 22.06746094 49.40650391 22.06746094 48 22.75 C47.08347656 23.19085938 46.16695313 23.63171875 45.22265625 24.0859375 C42.80846198 25.16699162 42.80846198 25.16699162 41.9375 27.375 C43.19046875 27.32859375 44.4434375 27.2821875 45.734375 27.234375 C47.38539281 27.19685187 49.03643642 27.16045229 50.6875 27.125 C51.925 27.07472656 51.925 27.07472656 53.1875 27.0234375 C59.26915117 26.92534635 59.26915117 26.92534635 62.4921875 29.09375 C65.3154623 33.5499459 64.40466222 38.63742939 63.546875 43.6640625 C62.93268214 46.30905434 62.24894822 48.79446051 60.9609375 51.1953125 C59.63350848 54.02243233 59.08176072 56.82176444 58.4375 59.875 C57.63543252 63.67610242 56.86465343 66.9858681 54.9375 70.375 C54.2775 70.375 53.6175 70.375 52.9375 70.375 C52.4425 72.355 52.4425 72.355 51.9375 74.375 C50.9475 74.375 49.9575 74.375 48.9375 74.375 C48.9375 75.035 48.9375 75.695 48.9375 76.375 C41.2182204 76.46786256 33.49899905 76.53884714 25.77928734 76.58224869 C22.19429099 76.60308423 18.60967806 76.63132651 15.02490234 76.67675781 C11.5624581 76.72036192 8.10038159 76.74416743 4.63768387 76.75450897 C2.68007518 76.76544821 0.72261352 76.79665128 -1.23477173 76.82818604 C-12.32840903 76.83097724 -12.32840903 76.83097724 -17.0625 72.375 C-21.5278549 66.47435245 -22.28554289 59.58613479 -22.81640625 52.4140625 C-22.84869224 50.38304547 -22.84869224 50.38304547 -24.0625 49.375 C-24.18625 48.364375 -24.31 47.35375 -24.4375 46.3125 C-24.99917063 42.77397504 -25.99782722 39.87938049 -27.27832031 36.55786133 C-28.54908221 33.02053813 -29.40451194 29.40829853 -30.25 25.75 C-30.42724609 25.02554688 -30.60449219 24.30109375 -30.78710938 23.5546875 C-31.75950319 19.40981195 -32.25869711 15.66427464 -32.0625 11.375 C-34.0425 11.375 -36.0225 11.375 -38.0625 11.375 C-38.0625 13.025 -38.0625 14.675 -38.0625 16.375 C-38.7225 16.375 -39.3825 16.375 -40.0625 16.375 C-40.0625 17.035 -40.0625 17.695 -40.0625 18.375 C-43.06563748 19.87656874 -45.85317522 19.46781204 -49.1875 19.4375 C-50.46882813 19.42847656 -51.75015625 19.41945312 -53.0703125 19.41015625 C-54.55144531 19.39275391 -54.55144531 19.39275391 -56.0625 19.375 C-56.0625 18.385 -56.0625 17.395 -56.0625 16.375 C-55.30324219 16.31441406 -54.54398437 16.25382813 -53.76171875 16.19140625 C-52.27091797 16.06572266 -52.27091797 16.06572266 -50.75 15.9375 C-49.76386719 15.85628906 -48.77773437 15.77507812 -47.76171875 15.69140625 C-44.96874401 15.45687441 -44.96874401 15.45687441 -42.0625 14.375 C-42.0625 13.055 -42.0625 11.735 -42.0625 10.375 C-47.3425 10.375 -52.6225 10.375 -58.0625 10.375 C-57.7325 12.685 -57.4025 14.995 -57.0625 17.375 C-58.3825 17.375 -59.7025 17.375 -61.0625 17.375 C-61.42932012 10.03859766 -61.42932012 10.03859766 -59.89770508 7.26782227 C-58.0625 5.375 -58.0625 5.375 -55.47460938 4.9050293 C-54.46205078 4.91961182 -53.44949219 4.93419434 -52.40625 4.94921875 C-50.74916016 4.96178711 -50.74916016 4.96178711 -49.05859375 4.97460938 C-47.32802734 5.01811523 -47.32802734 5.01811523 -45.5625 5.0625 C-43.83193359 5.07700195 -43.83193359 5.07700195 -42.06640625 5.09179688 C-33.57007504 5.20580832 -33.57007504 5.20580832 -30.0625 6.375 C-27.26104324 10.95920198 -25.83424078 14.87054576 -24.94140625 20.1640625 C-24.77326416 21.1432666 -24.60512207 22.1224707 -24.43188477 23.13134766 C-24.30998779 23.87175293 -24.18809082 24.6121582 -24.0625 25.375 C-20.27089703 25.43286668 -16.47940689 25.46855054 -12.6875 25.5 C-11.06714844 25.52513672 -11.06714844 25.52513672 -9.4140625 25.55078125 C-7.8671875 25.56044922 -7.8671875 25.56044922 -6.2890625 25.5703125 C-5.33596191 25.58078613 -4.38286133 25.59125977 -3.40087891 25.60205078 C-0.8701787 25.60631867 -0.8701787 25.60631867 0.9375 23.375 C2.2575 23.375 3.5775 23.375 4.9375 23.375 C4.9375 24.365 4.9375 25.355 4.9375 26.375 C8.93992307 26.3056691 12.94146349 26.21748976 16.94311523 26.11254883 C18.30172543 26.07949066 19.66046666 26.05140039 21.01928711 26.02856445 C33.41220034 25.91581471 33.41220034 25.91581471 43.8125 19.875 C46.10591147 17.49221037 46.10591147 17.49221037 46.9375 14.375 C46.04554932 14.49617187 45.15359863 14.61734375 44.23461914 14.7421875 C40.88610043 15.1941908 37.53695206 15.64082511 34.18725586 16.08398438 C32.74491675 16.27588841 31.30285002 16.4698525 29.86108398 16.66601562 C22.19584838 17.70753117 14.69423109 18.65233564 6.9375 18.375 C5.60682939 15.33346718 4.64530588 12.34522606 3.875 9.125 C3.33587692 5.60187834 3.33587692 5.60187834 1.9375 4.375 C-0.5625 4.20833333 -0.5625 4.20833333 -3.0625 4.375 C-4.32199049 5.40906673 -4.32199049 5.40906673 -4.16015625 7.66015625 C-4.14855469 8.57667969 -4.13695312 9.49320313 -4.125 10.4375 C-4.11597656 11.35660156 -4.10695312 12.27570313 -4.09765625 13.22265625 C-4.08605469 13.93292969 -4.07445312 14.64320313 -4.0625 15.375 C-7.9375 14.5 -7.9375 14.5 -9.0625 13.375 C-9.30078125 11.1953125 -9.30078125 11.1953125 -9.375 8.5 C-9.43107422 7.17355469 -9.43107422 7.17355469 -9.48828125 5.8203125 C-9.0625 3.375 -9.0625 3.375 -7.359375 1.578125 C-4.701114 0.18570257 -2.98795261 -0.0270403 0 0 Z " fill="#F7F3FF" transform="translate(120.0625,144.625)"/>
<path d="M0 0 C0.85722656 -0.00773438 1.71445313 -0.01546875 2.59765625 -0.0234375 C4.9375 0.375 4.9375 0.375 6.703125 1.54296875 C8.39274224 4.05066016 8.44856304 6.06307165 8.625 9.0625 C8.69074219 10.05636719 8.75648438 11.05023438 8.82421875 12.07421875 C8.88029297 13.21310547 8.88029297 13.21310547 8.9375 14.375 C12.41762082 13.90259949 15.89639854 13.4209514 19.375 12.9375 C20.36822266 12.80279297 21.36144531 12.66808594 22.38476562 12.52929688 C23.32900391 12.39716797 24.27324219 12.26503906 25.24609375 12.12890625 C26.12064209 12.00845947 26.99519043 11.8880127 27.89624023 11.76391602 C29.92414505 11.57577798 29.92414505 11.57577798 30.9375 10.375 C34.24188909 10.0973556 37.56032134 10.14325012 40.875 10.125 C42.27395508 10.0940625 42.27395508 10.0940625 43.70117188 10.0625 C44.59255859 10.05734375 45.48394531 10.0521875 46.40234375 10.046875 C47.63392212 10.03285645 47.63392212 10.03285645 48.89038086 10.01855469 C49.56593018 10.13618164 50.24147949 10.25380859 50.9375 10.375 C53.3669516 14.0191774 53.09929575 16.08741272 52.9375 20.375 C52.22722656 20.71273437 51.51695312 21.05046875 50.78515625 21.3984375 C49.40650391 22.06746094 49.40650391 22.06746094 48 22.75 C47.08347656 23.19085938 46.16695313 23.63171875 45.22265625 24.0859375 C42.80846198 25.16699162 42.80846198 25.16699162 41.9375 27.375 C43.19046875 27.32859375 44.4434375 27.2821875 45.734375 27.234375 C47.38539281 27.19685187 49.03643642 27.16045229 50.6875 27.125 C51.925 27.07472656 51.925 27.07472656 53.1875 27.0234375 C59.26915117 26.92534635 59.26915117 26.92534635 62.4921875 29.09375 C65.3154623 33.5499459 64.40466222 38.63742939 63.546875 43.6640625 C62.93268214 46.30905434 62.24894822 48.79446051 60.9609375 51.1953125 C59.63350848 54.02243233 59.08176072 56.82176444 58.4375 59.875 C57.63543252 63.67610242 56.86465343 66.9858681 54.9375 70.375 C54.2775 70.375 53.6175 70.375 52.9375 70.375 C52.4425 72.355 52.4425 72.355 51.9375 74.375 C50.9475 74.375 49.9575 74.375 48.9375 74.375 C48.9375 75.035 48.9375 75.695 48.9375 76.375 C41.2182204 76.46786256 33.49899905 76.53884714 25.77928734 76.58224869 C22.19429099 76.60308423 18.60967806 76.63132651 15.02490234 76.67675781 C11.5624581 76.72036192 8.10038159 76.74416743 4.63768387 76.75450897 C2.68007518 76.76544821 0.72261352 76.79665128 -1.23477173 76.82818604 C-12.32840903 76.83097724 -12.32840903 76.83097724 -17.0625 72.375 C-21.5278549 66.47435245 -22.28554289 59.58613479 -22.81640625 52.4140625 C-22.84869224 50.38304547 -22.84869224 50.38304547 -24.0625 49.375 C-24.18625 48.364375 -24.31 47.35375 -24.4375 46.3125 C-24.99917063 42.77397504 -25.99782722 39.87938049 -27.27832031 36.55786133 C-28.54908221 33.02053813 -29.40451194 29.40829853 -30.25 25.75 C-30.42724609 25.02554688 -30.60449219 24.30109375 -30.78710938 23.5546875 C-31.75950319 19.40981195 -32.25869711 15.66427464 -32.0625 11.375 C-34.0425 11.375 -36.0225 11.375 -38.0625 11.375 C-38.0625 13.025 -38.0625 14.675 -38.0625 16.375 C-38.7225 16.375 -39.3825 16.375 -40.0625 16.375 C-40.0625 17.035 -40.0625 17.695 -40.0625 18.375 C-43.06563748 19.87656874 -45.85317522 19.46781204 -49.1875 19.4375 C-50.46882813 19.42847656 -51.75015625 19.41945312 -53.0703125 19.41015625 C-54.55144531 19.39275391 -54.55144531 19.39275391 -56.0625 19.375 C-56.0625 18.385 -56.0625 17.395 -56.0625 16.375 C-55.30324219 16.31441406 -54.54398437 16.25382813 -53.76171875 16.19140625 C-52.27091797 16.06572266 -52.27091797 16.06572266 -50.75 15.9375 C-49.76386719 15.85628906 -48.77773437 15.77507812 -47.76171875 15.69140625 C-44.96874401 15.45687441 -44.96874401 15.45687441 -42.0625 14.375 C-42.0625 13.055 -42.0625 11.735 -42.0625 10.375 C-47.3425 10.375 -52.6225 10.375 -58.0625 10.375 C-57.7325 12.685 -57.4025 14.995 -57.0625 17.375 C-58.3825 17.375 -59.7025 17.375 -61.0625 17.375 C-61.42932012 10.03859766 -61.42932012 10.03859766 -59.89770508 7.26782227 C-58.0625 5.375 -58.0625 5.375 -55.47460938 4.9050293 C-54.46205078 4.91961182 -53.44949219 4.93419434 -52.40625 4.94921875 C-50.74916016 4.96178711 -50.74916016 4.96178711 -49.05859375 4.97460938 C-47.32802734 5.01811523 -47.32802734 5.01811523 -45.5625 5.0625 C-43.83193359 5.07700195 -43.83193359 5.07700195 -42.06640625 5.09179688 C-33.57007504 5.20580832 -33.57007504 5.20580832 -30.0625 6.375 C-25.56903 13.31945364 -25.00206479 20.23210517 -24.0625 28.375 C-17.1325 28.375 -10.2025 28.375 -3.0625 28.375 C-3.7225 29.695 -4.3825 31.015 -5.0625 32.375 C-10.6725 32.375 -16.2825 32.375 -22.0625 32.375 C-22.0625 34.355 -22.0625 36.335 -22.0625 38.375 C-21.4025 38.375 -20.7425 38.375 -20.0625 38.375 C-19.85753906 39.44621094 -19.65257812 40.51742187 -19.44140625 41.62109375 C-19.16947291 43.01826851 -18.89732648 44.41540181 -18.625 45.8125 C-18.49029297 46.51955078 -18.35558594 47.22660156 -18.21679688 47.95507812 C-17.77843102 51.45929264 -17.77843102 51.45929264 -16.0625 54.375 C-15.56377425 57.96129156 -15.1604677 61.55407043 -14.7578125 65.15234375 C-14.39294782 68.65761798 -14.39294782 68.65761798 -11.0625 70.375 C-8.41538242 70.70373988 -8.41538242 70.70373988 -5.39770508 70.69384766 C-4.23672806 70.71371735 -3.07575104 70.73358704 -1.8795929 70.75405884 C-0.62639755 70.76561005 0.62679779 70.77716125 1.91796875 70.7890625 C3.20109451 70.80842865 4.48422028 70.8277948 5.80622864 70.8477478 C9.2141095 70.89907292 12.62202986 70.93869632 16.03009033 70.97589111 C19.50909193 71.01592857 22.98792918 71.06702204 26.46679688 71.1171875 C33.29024449 71.21395107 40.11379758 71.29835439 46.9375 71.375 C47.246875 70.75189941 47.55625 70.12879883 47.875 69.48681641 C48.53606588 68.1728872 49.21985926 66.86984163 49.9375 65.5859375 C52.42096237 61.0264558 53.56985678 56.85460767 54.43359375 51.75 C54.9375 49.375 54.9375 49.375 56.5625 45.8125 C58.49458601 41.5993351 58.49458601 41.5993351 57.9375 33.375 C30.2175 32.385 30.2175 32.385 1.9375 31.375 C2.4325 29.89 2.4325 29.89 2.9375 28.375 C3.82010498 28.34994385 4.70270996 28.3248877 5.61206055 28.29907227 C8.90156615 28.2036647 12.19091182 28.10444807 15.48022461 28.00268555 C16.90107775 27.95950196 18.32197726 27.91781592 19.74291992 27.87768555 C21.7909947 27.81957905 23.83883965 27.75600362 25.88671875 27.69140625 C27.73269653 27.63641968 27.73269653 27.63641968 29.6159668 27.58032227 C32.49576984 27.40230577 35.13337088 27.02890895 37.9375 26.375 C37.9375 25.715 37.9375 25.055 37.9375 24.375 C39.9050587 22.51500715 41.99305598 20.84109802 44.08984375 19.12890625 C46.18548169 17.41494919 46.18548169 17.41494919 46.9375 14.375 C46.04554932 14.49617187 45.15359863 14.61734375 44.23461914 14.7421875 C40.88610043 15.1941908 37.53695206 15.64082511 34.18725586 16.08398438 C32.74491675 16.27588841 31.30285002 16.4698525 29.86108398 16.66601562 C22.19584838 17.70753117 14.69423109 18.65233564 6.9375 18.375 C5.60682939 15.33346718 4.64530588 12.34522606 3.875 9.125 C3.33587692 5.60187834 3.33587692 5.60187834 1.9375 4.375 C-0.5625 4.20833333 -0.5625 4.20833333 -3.0625 4.375 C-4.32199049 5.40906673 -4.32199049 5.40906673 -4.16015625 7.66015625 C-4.14855469 8.57667969 -4.13695312 9.49320313 -4.125 10.4375 C-4.11597656 11.35660156 -4.10695312 12.27570313 -4.09765625 13.22265625 C-4.08605469 13.93292969 -4.07445312 14.64320313 -4.0625 15.375 C-7.9375 14.5 -7.9375 14.5 -9.0625 13.375 C-9.30078125 11.1953125 -9.30078125 11.1953125 -9.375 8.5 C-9.43107422 7.17355469 -9.43107422 7.17355469 -9.48828125 5.8203125 C-9.0625 3.375 -9.0625 3.375 -7.359375 1.578125 C-4.701114 0.18570257 -2.98795261 -0.0270403 0 0 Z " fill="#A15FFF" transform="translate(120.0625,144.625)"/>
<path d="M0 0 C2.5625 1.8125 2.5625 1.8125 4 4 C4 4.99 4 5.98 4 7 C4.99 7 5.98 7 7 7 C7 7.99 7 8.98 7 10 C13.93 10 20.86 10 28 10 C28 8.68 28 7.36 28 6 C30.69512767 2.87932586 32.3765588 1.30293879 36.44921875 0.54296875 C40.68955459 0.37183412 43.29104657 0.58644383 47 2.75 C50.67447048 6.88377928 51.29272356 9.66379405 51.12109375 15.10546875 C50.79271713 20.24297393 50.79271713 20.24297393 48.3515625 22.57421875 C43.73468747 25.37348683 38.19825764 24.70211906 33 24 C30.09459503 22.64345135 29.07620835 21.55077026 27 19 C27 18.01 27 17.02 27 16 C20.4 16 13.8 16 7 16 C6.67 17.32 6.34 18.64 6 20 C1.88494135 24.21303623 -0.91579556 25.8893781 -7 26 C-9.9375 25.0625 -9.9375 25.0625 -12 24 C-12 23.34 -12 22.68 -12 22 C-12.66 22 -13.32 22 -14 22 C-14 21.34 -14 20.68 -14 20 C-14.66 20 -15.32 20 -16 20 C-17.22485812 17.55028376 -17.16722808 15.85765539 -17.1875 13.125 C-17.20167969 12.26132813 -17.21585937 11.39765625 -17.23046875 10.5078125 C-16.98859252 7.8758712 -16.32983541 6.26019456 -15 4 C-14.34 4 -13.68 4 -13 4 C-13 3.34 -13 2.68 -13 2 C-8.70768605 -0.43881474 -4.84993812 -0.73861443 0 0 Z " fill="#C544FF" transform="translate(118,232)"/>
<path d="M0 0 C23.66666667 0 23.66666667 0 28.875 4.6875 C30.53370174 8.09705357 30.67867297 11.32932793 30 15 C28.21383438 17.73878729 26.29876066 19.70123934 24 22 C24.5775 22.7425 25.155 23.485 25.75 24.25 C28.99991834 29.0784501 32 36.13333894 32 42 C29.03 42 26.06 42 23 42 C22.65066406 40.92878906 22.30132812 39.85757813 21.94140625 38.75390625 C21.48192855 37.35671896 21.02228454 35.95958635 20.5625 34.5625 C20.21735352 33.50192383 20.21735352 33.50192383 19.86523438 32.41992188 C18.92578853 28.93693205 18.92578853 28.93693205 17 26 C14.36 25.67 11.72 25.34 9 25 C9 30.61 9 36.22 9 42 C6.03 42 3.06 42 0 42 C0 28.14 0 14.28 0 0 Z " fill="#0C0C0C" transform="translate(416,157)"/>
<path d="M0 0 C9 0 9 0 11.09375 1.66015625 C11.5578125 2.45292969 12.021875 3.24570313 12.5 4.0625 C13.04785156 4.96097656 13.59570312 5.85945312 14.16015625 6.78515625 C14.76730469 7.84605469 15.37445313 8.90695313 16 10 C16.80693503 11.31382567 17.61838117 12.6248881 18.43359375 13.93359375 C25 24.56704238 25 24.56704238 25 27 C25.66 27 26.32 27 27 27 C27 18.09 27 9.18 27 0 C29.64 0 32.28 0 35 0 C35 13.86 35 27.72 35 42 C26 42 26 42 23.95605469 40.3828125 C23.53227539 39.63773438 23.10849609 38.89265625 22.671875 38.125 C22.18203125 37.30386719 21.6921875 36.48273438 21.1875 35.63671875 C20.713125 34.76660156 20.23875 33.89648438 19.75 33 C19.26015625 32.16082031 18.7703125 31.32164062 18.265625 30.45703125 C17.33716713 28.86433092 16.42220716 27.26361626 15.52636719 25.65234375 C13.44932998 22.04310955 11.20702753 18.53124406 9 15 C8.67 23.91 8.34 32.82 8 42 C5.36 42 2.72 42 0 42 C0 28.14 0 14.28 0 0 Z " fill="#090909" transform="translate(291,157)"/>
<path d="M0 0 C3.63 0 7.26 0 11 0 C15.0290559 8.43223842 17.84568471 17.19893896 20.75 26.0625 C21.26129703 27.61146739 21.77301243 29.16029675 22.28515625 30.70898438 C23.52826678 34.47108216 24.7657 38.23500286 26 42 C23.03 42 20.06 42 17 42 C15.515 37.05 15.515 37.05 14 32 C6.08 32.495 6.08 32.495 -2 33 C-2.99 35.97 -3.98 38.94 -5 42 C-7.97 42 -10.94 42 -14 42 C-11.40453788 33.01775225 -8.37121984 24.20694321 -5.3125 15.375 C-4.79604035 13.87896962 -4.27976292 12.38287633 -3.76367188 10.88671875 C-2.51121261 7.25708425 -1.25629613 3.62830818 0 0 Z " fill="#0A0A0A" transform="translate(259,157)"/>
<path d="M0 0 C1.28648437 -0.02835938 2.57296875 -0.05671875 3.8984375 -0.0859375 C9.04624831 0.55079382 12.017033 2.767033 15.625 6.375 C15.4375 8.375 15.4375 8.375 14.625 10.375 C11.625 12.375 11.625 12.375 8.625 12.375 C8.109375 11.715 7.59375 11.055 7.0625 10.375 C3.71933911 7.63189363 1.19490568 7.81257371 -3.02734375 7.98046875 C-5.56696258 8.2325798 -5.56696258 8.2325798 -7.9375 10.1875 C-11.36205609 15.39878101 -10.83506209 21.36246437 -10.375 27.375 C-8.87246092 31.76219953 -8.87246092 31.76219953 -5.375 34.375 C-3.71154418 34.49582534 -2.04279409 34.5503794 -0.375 34.5625 C0.511875 34.57667969 1.39875 34.59085938 2.3125 34.60546875 C4.82019984 34.60213126 4.82019984 34.60213126 6.625 32.375 C7.02264263 30.38678687 7.36275349 28.38555661 7.625 26.375 C4.325 26.375 1.025 26.375 -2.375 26.375 C-2.375 24.065 -2.375 21.755 -2.375 19.375 C3.895 19.375 10.165 19.375 16.625 19.375 C16.625 26.965 16.625 34.555 16.625 42.375 C13.985 42.375 11.345 42.375 8.625 42.375 C8.13 39.9 8.13 39.9 7.625 37.375 C7.0475 38.2 6.47 39.025 5.875 39.875 C3.06788541 42.69820121 0.58784447 42.82606159 -3.3125 42.9375 C-8.44068996 42.69210195 -11.6292884 42.1207116 -15.375 38.375 C-19.39042644 33.57669168 -19.74695496 28.39005946 -19.8125 22.3125 C-19.82265137 21.63993164 -19.83280273 20.96736328 -19.84326172 20.27441406 C-19.73325527 13.93742259 -18.10286147 9.36868631 -13.9375 4.5625 C-9.29867106 0.60252408 -6.14096078 0.06128703 0 0 Z " fill="#0A0A0A" transform="translate(354.375,156.625)"/>
<path d="M0 0 C1.32 0 2.64 0 4 0 C4 0.99 4 1.98 4 3 C14.89 2.67 25.78 2.34 37 2 C34.35420684 4.64579316 32.61210731 4.97754399 28.90551758 5.11352539 C27.66439209 5.10828857 26.4232666 5.10305176 25.14453125 5.09765625 C24.48289474 5.0962413 23.82125824 5.09482635 23.13957214 5.09336853 C21.03050172 5.08777996 18.92153823 5.07522965 16.8125 5.0625 C15.38086091 5.05748352 13.94922015 5.05292087 12.51757812 5.04882812 C9.01168412 5.0378143 5.5058525 5.02055755 2 5 C2 5.66 2 6.32 2 7 C11.9 7.66 21.8 8.32 32 9 C31.01 9.33 30.02 9.66 29 10 C28.67 10.99 28.34 11.98 28 13 C22.62857143 17 22.62857143 17 20 17 C20 17.66 20 18.32 20 19 C17.0173094 20.52448631 14.181798 21.93940067 11 23 C11 23.66 11 24.32 11 25 C10.195625 25.350625 9.39125 25.70125 8.5625 26.0625 C5.51961802 27.53394058 3.23528721 29.47941775 0.6875 31.6875 C-3.33565701 34.91966343 -6.04285946 35.72076077 -11.15234375 35.44140625 C-13 35 -13 35 -15 33 C-15.75937793 27.58943227 -15.24954147 24.87891221 -12.125 20.375 C-11.59132813 19.68148437 -11.05765625 18.98796875 -10.5078125 18.2734375 C-8.56116474 15.55288683 -8.56116474 15.55288683 -7 10 C-11.95 10 -16.9 10 -22 10 C-22 11.65 -22 13.3 -22 15 C-22.33 15 -22.66 15 -23 15 C-23 13.02 -23 11.04 -23 9 C-21.79601562 8.96261719 -20.59203125 8.92523438 -19.3515625 8.88671875 C-17.77600989 8.82107072 -16.20049046 8.75462299 -14.625 8.6875 C-13.8309375 8.66494141 -13.036875 8.64238281 -12.21875 8.61914062 C-10.13784419 8.52214925 -8.06558668 8.27005175 -6 8 C-5.34 7.01 -4.68 6.02 -4 5 C-10.93 5 -17.86 5 -25 5 C-25 4.34 -25 3.68 -25 3 C-24.31373535 2.98018066 -23.6274707 2.96036133 -22.92041016 2.93994141 C-19.82154221 2.84489055 -16.72336706 2.73513153 -13.625 2.625 C-12.54476562 2.5940625 -11.46453125 2.563125 -10.3515625 2.53125 C-9.3203125 2.49257812 -8.2890625 2.45390625 -7.2265625 2.4140625 C-6.27346191 2.3826416 -5.32036133 2.3512207 -4.33837891 2.31884766 C-1.81104824 2.21444204 -1.81104824 2.21444204 0 0 Z " fill="#DF82FF" transform="translate(121,168)"/>
<path d="M0 0 C2.64 0 5.28 0 8 0 C8 5.28 8 10.56 8 16 C14.27 16 20.54 16 27 16 C27 10.72 27 5.44 27 0 C29.64 0 32.28 0 35 0 C35 13.86 35 27.72 35 42 C32.36 42 29.72 42 27 42 C27 35.73 27 29.46 27 23 C20.73 23 14.46 23 8 23 C8 29.27 8 35.54 8 42 C5.36 42 2.72 42 0 42 C0 28.14 0 14.28 0 0 Z " fill="#010101" transform="translate(204,157)"/>
<path d="M0 0 C9.24 0 18.48 0 28 0 C28 2.31 28 4.62 28 7 C21.4 7 14.8 7 8 7 C8 10.3 8 13.6 8 17 C13.94 17 19.88 17 26 17 C26 19.31 26 21.62 26 24 C20.39 24 14.78 24 9 24 C9 27.63 9 31.26 9 35 C15.27 35 21.54 35 28 35 C28 37.31 28 39.62 28 42 C18.76 42 9.52 42 0 42 C0 28.14 0 14.28 0 0 Z " fill="#0A0A0A" transform="translate(380,157)"/>
<path d="M0 0 C1.01255859 0.01458252 2.02511719 0.02916504 3.06835938 0.04418945 C4.72544922 0.05675781 4.72544922 0.05675781 6.41601562 0.06958008 C8.14658203 0.11308594 8.14658203 0.11308594 9.91210938 0.1574707 C11.64267578 0.17197266 11.64267578 0.17197266 13.40820312 0.18676758 C21.90453434 0.30077902 21.90453434 0.30077902 25.41210938 1.4699707 C29.90557938 8.41442434 30.47254459 15.32707587 31.41210938 23.4699707 C38.34210938 23.4699707 45.27210937 23.4699707 52.41210938 23.4699707 C51.75210938 24.7899707 51.09210938 26.1099707 50.41210938 27.4699707 C44.80210938 27.4699707 39.19210938 27.4699707 33.41210938 27.4699707 C33.90710938 30.0893457 34.40210938 32.7087207 34.91210938 35.4074707 C36.02762854 41.5140216 36.75177107 47.24283972 36.41210938 53.4699707 C33.41210938 51.4699707 33.41210938 51.4699707 32.56835938 48.4934082 C32.35179687 47.28942383 32.13523438 46.08543945 31.91210938 44.8449707 C31.05645515 40.14905885 29.89625612 35.95138819 28.16552734 31.53198242 C26.89027023 28.04176157 26.06035721 24.46112477 25.22460938 20.8449707 C25.04736328 20.12051758 24.87011719 19.39606445 24.6875 18.6496582 C23.71510619 14.50478265 23.21591227 10.75924535 23.41210938 6.4699707 C21.43210937 6.4699707 19.45210937 6.4699707 17.41210938 6.4699707 C17.41210938 8.1199707 17.41210938 9.7699707 17.41210938 11.4699707 C16.75210938 11.4699707 16.09210938 11.4699707 15.41210938 11.4699707 C15.41210938 12.1299707 15.41210938 12.7899707 15.41210938 13.4699707 C12.4089719 14.97153944 9.62143415 14.56278275 6.28710938 14.5324707 C5.00578125 14.52344727 3.72445312 14.51442383 2.40429688 14.50512695 C0.92316406 14.48772461 0.92316406 14.48772461 -0.58789062 14.4699707 C-0.58789062 13.4799707 -0.58789062 12.4899707 -0.58789062 11.4699707 C0.17136719 11.40938477 0.930625 11.34879883 1.71289062 11.28637695 C3.20369141 11.16069336 3.20369141 11.16069336 4.72460938 11.0324707 C5.71074219 10.95125977 6.696875 10.87004883 7.71289062 10.78637695 C10.50586537 10.55184511 10.50586537 10.55184511 13.41210938 9.4699707 C13.41210938 8.1499707 13.41210938 6.8299707 13.41210938 5.4699707 C8.13210937 5.4699707 2.85210937 5.4699707 -2.58789062 5.4699707 C-2.25789063 7.7799707 -1.92789063 10.0899707 -1.58789062 12.4699707 C-2.90789063 12.4699707 -4.22789063 12.4699707 -5.58789062 12.4699707 C-5.95471074 5.13356836 -5.95471074 5.13356836 -4.4230957 2.36279297 C-2.58789062 0.4699707 -2.58789062 0.4699707 0 0 Z " fill="#7885FF" transform="translate(64.587890625,149.530029296875)"/>
<path d="M0 0 C2.96527758 2.4453385 3.55582214 4.44602347 4.1875 8.1875 C4.34605469 9.08855469 4.50460938 9.98960937 4.66796875 10.91796875 C4.83232422 11.94857422 4.83232422 11.94857422 5 13 C12.18095438 13.17989865 19.01664406 12.4801584 26.125 11.5 C38.65931463 9.78445262 38.65931463 9.78445262 45 10 C44.44712232 13.7381133 43.02221638 15.26300232 40.1875 17.6875 C39.50042969 18.28949219 38.81335938 18.89148438 38.10546875 19.51171875 C34.06713311 22.36627511 30.11022831 22.11890451 25.265625 22.09765625 C23.97011719 22.09443359 22.67460937 22.09121094 21.33984375 22.08789062 C19.97656183 22.07953598 18.61328058 22.07107104 17.25 22.0625 C15.87109535 22.05748168 14.49218896 22.05291935 13.11328125 22.04882812 C9.74214341 22.03704093 6.37109372 22.02058635 3 22 C3 21.01 3 20.02 3 19 C1.02 19.66 -0.96 20.32 -3 21 C-3 20.01 -3 19.02 -3 18 C0.465 17.505 0.465 17.505 4 17 C3.34 16.01 2.68 15.02 2 14 C1.55058745 11.61700383 1.18393057 9.21774516 0.875 6.8125 C0.70742187 5.54019531 0.53984375 4.26789063 0.3671875 2.95703125 C0.24601562 1.98121094 0.12484375 1.00539062 0 0 Z " fill="#FBF8FF" transform="translate(122,149)"/>
<path d="M0 0 C1.28583984 -0.01160156 1.28583984 -0.01160156 2.59765625 -0.0234375 C4.9375 0.375 4.9375 0.375 6.703125 1.54296875 C8.39274224 4.05066016 8.44856304 6.06307165 8.625 9.0625 C8.72361328 10.55330078 8.72361328 10.55330078 8.82421875 12.07421875 C8.86160156 12.83347656 8.89898437 13.59273437 8.9375 14.375 C12.41762082 13.90259949 15.89639854 13.4209514 19.375 12.9375 C20.36822266 12.80279297 21.36144531 12.66808594 22.38476562 12.52929688 C23.32900391 12.39716797 24.27324219 12.26503906 25.24609375 12.12890625 C26.55791626 11.94823608 26.55791626 11.94823608 27.89624023 11.76391602 C29.92414505 11.57577798 29.92414505 11.57577798 30.9375 10.375 C34.24188909 10.0973556 37.56032134 10.14325012 40.875 10.125 C42.27395508 10.0940625 42.27395508 10.0940625 43.70117188 10.0625 C44.59255859 10.05734375 45.48394531 10.0521875 46.40234375 10.046875 C47.63392212 10.03285645 47.63392212 10.03285645 48.89038086 10.01855469 C49.56593018 10.13618164 50.24147949 10.25380859 50.9375 10.375 C53.3669516 14.0191774 53.09929575 16.08741272 52.9375 20.375 C51.2875 21.035 49.6375 21.695 47.9375 22.375 C48.2675 21.715 48.5975 21.055 48.9375 20.375 C49.5975 20.375 50.2575 20.375 50.9375 20.375 C50.9375 18.395 50.9375 16.415 50.9375 14.375 C48.18366077 15.75191962 47.42266899 17.74220042 45.9375 20.375 C45.2775 20.045 44.6175 19.715 43.9375 19.375 C44.9275 17.725 45.9175 16.075 46.9375 14.375 C46.04554932 14.49617187 45.15359863 14.61734375 44.23461914 14.7421875 C40.88610043 15.1941908 37.53695206 15.64082511 34.18725586 16.08398438 C32.74491675 16.27588841 31.30285002 16.4698525 29.86108398 16.66601562 C22.19584838 17.70753117 14.69423109 18.65233564 6.9375 18.375 C5.60682939 15.33346718 4.64530588 12.34522606 3.875 9.125 C3.33587692 5.60187834 3.33587692 5.60187834 1.9375 4.375 C-0.5625 4.20833333 -0.5625 4.20833333 -3.0625 4.375 C-4.32199049 5.40906673 -4.32199049 5.40906673 -4.16015625 7.66015625 C-4.14855469 8.57667969 -4.13695313 9.49320313 -4.125 10.4375 C-4.11146484 11.81615234 -4.11146484 11.81615234 -4.09765625 13.22265625 C-4.08605469 13.93292969 -4.07445313 14.64320313 -4.0625 15.375 C-7.9375 14.5 -7.9375 14.5 -9.0625 13.375 C-9.30078125 11.1953125 -9.30078125 11.1953125 -9.375 8.5 C-9.41238281 7.61570313 -9.44976562 6.73140625 -9.48828125 5.8203125 C-9.0625 3.375 -9.0625 3.375 -7.359375 1.578125 C-4.701114 0.18570257 -2.98795261 -0.0270403 0 0 Z " fill="#D868FF" transform="translate(120.0625,144.625)"/>
<path d="M0 0 C1.29611206 0.0314209 1.29611206 0.0314209 2.6184082 0.06347656 C3.55620117 0.07636719 4.49399414 0.08925781 5.46020508 0.10253906 C6.43666992 0.13605469 7.41313477 0.16957031 8.41918945 0.20410156 C9.40725586 0.22214844 10.39532227 0.24019531 11.41333008 0.25878906 C13.85375788 0.30594709 16.29223715 0.37174114 18.73168945 0.45410156 C15.60266276 3.73957959 12.61278398 6.36124572 8.73168945 8.70410156 C3.68728051 11.80888043 -1.1543765 15.12344984 -5.94018555 18.609375 C-9.94112386 21.45410156 -9.94112386 21.45410156 -13.26831055 21.45410156 C-13.73771868 16.23674558 -12.6512639 13.91697883 -9.45581055 9.82910156 C-8.74811523 8.90871094 -8.04041992 7.98832031 -7.3112793 7.04003906 C-6.63709961 6.18667969 -5.96291992 5.33332031 -5.26831055 4.45410156 C-4.83196289 3.74882324 -4.39561523 3.04354492 -3.94604492 2.31689453 C-2.26831055 0.45410156 -2.26831055 0.45410156 0 0 Z " fill="#F5E7FF" transform="translate(124.268310546875,176.5458984375)"/>
<path d="M0 0 C1.32 0 2.64 0 4 0 C4 0.99 4 1.98 4 3 C14.89 2.67 25.78 2.34 37 2 C34.35420684 4.64579316 32.61210731 4.97754399 28.90551758 5.11352539 C27.66439209 5.10828857 26.4232666 5.10305176 25.14453125 5.09765625 C24.48289474 5.0962413 23.82125824 5.09482635 23.13957214 5.09336853 C21.03050172 5.08777996 18.92153823 5.07522965 16.8125 5.0625 C15.38086091 5.05748352 13.94922015 5.05292087 12.51757812 5.04882812 C9.01168412 5.0378143 5.5058525 5.02055755 2 5 C2 5.66 2 6.32 2 7 C8.6 7.33 15.2 7.66 22 8 C22 8.33 22 8.66 22 9 C21.40050537 8.9779248 20.80101074 8.95584961 20.18334961 8.93310547 C8.50357623 8.15467932 8.50357623 8.15467932 -1.8828125 12.22265625 C-3.56894968 14.75916131 -4.82098788 17.1992637 -6 20 C-6.66 20.66 -7.32 21.32 -8 22 C-7.49396008 19.83125748 -7.00016187 18.00032373 -6 16 C-6.66 16 -7.32 16 -8 16 C-7.67 14.02 -7.34 12.04 -7 10 C-11.95 10 -16.9 10 -22 10 C-22 11.65 -22 13.3 -22 15 C-22.33 15 -22.66 15 -23 15 C-23 13.02 -23 11.04 -23 9 C-21.79601562 8.96261719 -20.59203125 8.92523438 -19.3515625 8.88671875 C-17.77600989 8.82107072 -16.20049046 8.75462299 -14.625 8.6875 C-13.8309375 8.66494141 -13.036875 8.64238281 -12.21875 8.61914062 C-10.13784419 8.52214925 -8.06558668 8.27005175 -6 8 C-5.34 7.01 -4.68 6.02 -4 5 C-10.93 5 -17.86 5 -25 5 C-25 4.34 -25 3.68 -25 3 C-24.31373535 2.98018066 -23.6274707 2.96036133 -22.92041016 2.93994141 C-19.82154221 2.84489055 -16.72336706 2.73513153 -13.625 2.625 C-12.54476562 2.5940625 -11.46453125 2.563125 -10.3515625 2.53125 C-9.3203125 2.49257812 -8.2890625 2.45390625 -7.2265625 2.4140625 C-6.27346191 2.3826416 -5.32036133 2.3512207 -4.33837891 2.31884766 C-1.81104824 2.21444204 -1.81104824 2.21444204 0 0 Z " fill="#C198FF" transform="translate(121,168)"/>
<path d="M0 0 C1.01255859 0.01458252 2.02511719 0.02916504 3.06835938 0.04418945 C4.72544922 0.05675781 4.72544922 0.05675781 6.41601562 0.06958008 C8.14658203 0.11308594 8.14658203 0.11308594 9.91210938 0.1574707 C11.64267578 0.17197266 11.64267578 0.17197266 13.40820312 0.18676758 C21.90453434 0.30077902 21.90453434 0.30077902 25.41210938 1.4699707 C26.76650605 4.17876406 26.47712388 6.47930338 26.41210938 9.4699707 C25.75210938 9.4699707 25.09210938 9.4699707 24.41210938 9.4699707 C24.41210938 8.1499707 24.41210938 6.8299707 24.41210938 5.4699707 C21.77210937 5.4699707 19.13210937 5.4699707 16.41210938 5.4699707 C16.47398438 6.3980957 16.53585938 7.3262207 16.59960938 8.2824707 C16.41210938 11.4699707 16.41210938 11.4699707 15.34960938 13.1574707 C12.37229149 15.17436346 9.76385643 14.75488117 6.22460938 14.6574707 C4.95230469 14.63040039 3.68 14.60333008 2.36914062 14.57543945 C0.90541016 14.52323242 0.90541016 14.52323242 -0.58789062 14.4699707 C-0.58789062 13.4799707 -0.58789062 12.4899707 -0.58789062 11.4699707 C0.17136719 11.40938477 0.930625 11.34879883 1.71289062 11.28637695 C3.20369141 11.16069336 3.20369141 11.16069336 4.72460938 11.0324707 C5.71074219 10.95125977 6.696875 10.87004883 7.71289062 10.78637695 C10.50586537 10.55184511 10.50586537 10.55184511 13.41210938 9.4699707 C13.41210938 8.1499707 13.41210938 6.8299707 13.41210938 5.4699707 C8.13210937 5.4699707 2.85210937 5.4699707 -2.58789062 5.4699707 C-2.25789063 7.7799707 -1.92789063 10.0899707 -1.58789062 12.4699707 C-2.90789063 12.4699707 -4.22789063 12.4699707 -5.58789062 12.4699707 C-5.95471074 5.13356836 -5.95471074 5.13356836 -4.4230957 2.36279297 C-2.58789062 0.4699707 -2.58789062 0.4699707 0 0 Z " fill="#3466FF" transform="translate(64.587890625,149.530029296875)"/>
<path d="M0 0 C1.32 0 2.64 0 4 0 C4 7.26 4 14.52 4 22 C-5.08203125 22.48828125 -5.08203125 22.48828125 -8 22 C-10.40733736 19.02623032 -10.96813526 17.25947001 -11.4375 13.4375 C-11 10 -11 10 -9.4375 7.5 C-6.01717697 5.39518583 -3.80835623 6.12114856 0 7 C0 4.69 0 2.38 0 0 Z " fill="#BC50FF" transform="translate(233,228)"/>
<path d="M0 0 C9.9978099 -0.48182216 9.9978099 -0.48182216 14.25 1.5625 C16 4 16 4 16 7.625 C15 11 15 11 12 13 C9.66800612 13.07905064 7.33167378 13.08798769 5 13 C5 15.64 5 18.28 5 21 C3.35 21 1.7 21 0 21 C0 14.07 0 7.14 0 0 Z " fill="#C15FFF" transform="translate(303,229)"/>
<path d="M0 0 C3.0625 1.375 3.0625 1.375 5 4 C5.68988789 7.33445813 5.92862347 10.59988161 6 14 C4.68 14 3.36 14 2 14 C2 11.69 2 9.38 2 7 C-0.83086891 4.99480119 -2.85677377 4.91783585 -6.1875 5.3125 C-9.77540665 5.58527471 -9.77540665 5.58527471 -11 7 C-11.26247139 11.54950416 -10.99544337 14.88439805 -9 19 C-9.99 19.33 -10.98 19.66 -12 20 C-12.33 19.01 -12.66 18.02 -13 17 C-13.66 17 -14.32 17 -15 17 C-15.33 15.68 -15.66 14.36 -16 13 C-22.93 12.67 -29.86 12.34 -37 12 C-37 12.66 -37 13.32 -37 14 C-37.99 14 -38.98 14 -40 14 C-40 12.02 -40 10.04 -40 8 C-39.34 8 -38.68 8 -38 8 C-38 8.66 -38 9.32 -38 10 C-30.74 10 -23.48 10 -16 10 C-16 8.35 -16 6.7 -16 5 C-11.4106497 -0.43475694 -6.92207419 -1.1882894 0 0 Z " fill="#AD41FF" transform="translate(162,233)"/>
<path d="M0 0 C1.98 0 3.96 0 6 0 C8.93841629 6.87619244 11.180206 13.74839665 13 21 C11.35 20.67 9.7 20.34 8 20 C7.67 19.01 7.34 18.02 7 17 C4.36 16.67 1.72 16.34 -1 16 C-1.33 17.65 -1.66 19.3 -2 21 C-3.65 21 -5.3 21 -7 21 C-4.69 14.07 -2.38 7.14 0 0 Z " fill="#BD54FF" transform="translate(207,229)"/>
<path d="M0 0 C5 0 10 0 15 0 C16.546875 -0.0928125 16.546875 -0.0928125 18.125 -0.1875 C19.07375 -0.125625 20.0225 -0.06375 21 0 C23.42130331 3.63195496 23.21022785 5.38349348 23.125 9.6875 C23.10695313 10.86699219 23.08890625 12.04648438 23.0703125 13.26171875 C23.04710937 14.16535156 23.02390625 15.06898438 23 16 C21.68 16 20.36 16 19 16 C18.67 12.04 18.34 8.08 18 4 C16.68 4.33 15.36 4.66 14 5 C13.67 8.63 13.34 12.26 13 16 C11.68 16 10.36 16 9 16 C8.67 12.04 8.34 8.08 8 4 C7.01 4 6.02 4 5 4 C4.67 7.96 4.34 11.92 4 16 C2.68 16 1.36 16 0 16 C0 10.72 0 5.44 0 0 Z " fill="#BD53FF" transform="translate(242,234)"/>
<path d="M0 0 C14.19 0 28.38 0 43 0 C43 1.65 43 3.3 43 5 C29.14 5 15.28 5 1 5 C0.67 3.35 0.34 1.7 0 0 Z " fill="#9864FF" transform="translate(116,206)"/>
<path d="M0 0 C4.25414623 -0.02465622 8.50825498 -0.04283899 12.76245117 -0.05493164 C14.21070073 -0.05997101 15.65894517 -0.06680253 17.10717773 -0.07543945 C19.18474588 -0.08752247 21.26224697 -0.09323211 23.33984375 -0.09765625 C24.59144287 -0.10289307 25.84304199 -0.10812988 27.13256836 -0.11352539 C30 0 30 0 31 1 C31 2.65 31 4.3 31 6 C20.77 6 10.54 6 0 6 C0 4.02 0 2.04 0 0 Z " fill="#B994FF" transform="translate(63,208)"/>
<path d="M0 0 C11.88 0 23.76 0 36 0 C36 1.65 36 3.3 36 5 C24.12 5 12.24 5 0 5 C0 3.35 0 1.7 0 0 Z " fill="#8667FF" transform="translate(53,194)"/>
<path d="M0 0 C0.66 0 1.32 0 2 0 C2.5 2.6875 2.5 2.6875 2 6 C0.14491196 7.5436499 -1.78929043 8.61805464 -3.90625 9.7734375 C-6.26059382 11.03421682 -6.26059382 11.03421682 -8.6875 13.6875 C-12.05011632 17.05011632 -14.65720009 17.94679128 -19.41333008 18.13525391 C-20.68587646 18.08288574 -21.95842285 18.03051758 -23.26953125 17.9765625 C-23.95053391 17.95153656 -24.63153656 17.92651062 -25.33317566 17.90072632 C-27.49349371 17.8190071 -29.65283038 17.72223688 -31.8125 17.625 C-33.28316393 17.566711 -34.75386733 17.50940882 -36.22460938 17.453125 C-39.81693385 17.31350232 -43.40853557 17.16038134 -47 17 C-46.505 15.515 -46.505 15.515 -46 14 C-45.11739502 13.97494385 -44.23479004 13.9498877 -43.32543945 13.92407227 C-40.03593385 13.8286647 -36.74658818 13.72944807 -33.45727539 13.62768555 C-32.03642225 13.58450196 -30.61552274 13.54281592 -29.19458008 13.50268555 C-27.1465053 13.44457905 -25.09866035 13.38100362 -23.05078125 13.31640625 C-21.20480347 13.26141968 -21.20480347 13.26141968 -19.3215332 13.20532227 C-16.44173016 13.02730577 -13.80412912 12.65390895 -11 12 C-11 11.34 -11 10.68 -11 10 C-8.70992056 7.96437383 -6.60718852 6.2775719 -3.8125 5 C-1.50737973 3.7282095 -0.96030234 2.40075585 0 0 Z " fill="#D24FFF" transform="translate(169,159)"/>
<path d="M0 0 C2.31332486 3.46998729 2.33957563 4.92509248 2 9 C1.01 10.485 1.01 10.485 0 12 C-0.66 12 -1.32 12 -2 12 C-2 12.66 -2 13.32 -2 14 C-8.3782235 14.48137536 -8.3782235 14.48137536 -10.9375 12.5 C-12.56733793 8.66508723 -12.52956158 6.17029747 -12 2 C-8.27564885 -1.72435115 -4.88581089 -1.29059156 0 0 Z " fill="#A498FF" transform="translate(119,238)"/>
<path d="M0 0 C0.99 0.495 0.99 0.495 2 1 C2.37507435 7.77912154 1.73966974 12.80888359 -1 19 C-2.59260737 23.33543118 -3.4493536 27.41127997 -4 32 C-4.66 32 -5.32 32 -6 32 C-6 33.98 -6 35.96 -6 38 C-6.66 38 -7.32 38 -8 38 C-8 38.99 -8 39.98 -8 41 C-8.66 41 -9.32 41 -10 41 C-10.33 41.99 -10.66 42.98 -11 44 C-14.52617644 46.35078429 -15.95164881 46.24370599 -20.1237793 46.22705078 C-21.38486008 46.22689972 -22.64594086 46.22674866 -23.94523621 46.22659302 C-25.32156532 46.21637976 -26.69789283 46.20594777 -28.07421875 46.1953125 C-29.48240458 46.19158172 -30.890593 46.18873506 -32.29878235 46.18673706 C-36.0027281 46.17910564 -39.70651668 46.15946148 -43.41040039 46.1373291 C-47.19089634 46.11686003 -50.97141772 46.10773308 -54.75195312 46.09765625 C-62.16804036 46.07621504 -69.58399814 46.04208513 -77 46 C-77 45.34 -77 44.68 -77 44 C-77.8971875 43.9071875 -77.8971875 43.9071875 -78.8125 43.8125 C-81.91373958 42.66061101 -82.64108103 40.93240408 -84 38 C-83.67 37.34 -83.34 36.68 -83 36 C-82.4225 36.94875 -81.845 37.8975 -81.25 38.875 C-79.03094953 41.95701453 -78.39238745 42.74667476 -75 44 C-72.17207072 44.32626501 -72.17207072 44.32626501 -69.03808594 44.31884766 C-67.83714294 44.33871735 -66.63619995 44.35858704 -65.39886475 44.37905884 C-64.10708313 44.39061005 -62.81530151 44.40216125 -61.484375 44.4140625 C-60.14486505 44.43277987 -58.80536682 44.45235371 -57.46588135 44.4727478 C-53.94786497 44.52401524 -50.42981038 44.56366952 -46.91162109 44.60089111 C-43.31858918 44.64096474 -39.72571546 44.69204171 -36.1328125 44.7421875 C-29.08865758 44.83888278 -22.0444034 44.9233079 -15 45 C-15 44.34 -15 43.68 -15 43 C-14.01 42.67 -13.02 42.34 -12 42 C-11.67 41.01 -11.34 40.02 -11 39 C-10.34 39 -9.68 39 -9 39 C-8.89042969 38.3709375 -8.78085938 37.741875 -8.66796875 37.09375 C-7.4656905 30.60340236 -5.75821386 24.7982788 -2.9765625 18.7890625 C-1.69314034 15.12360882 -1.29443143 11.53458013 -0.875 7.6875 C-0.74544922 6.57665039 -0.74544922 6.57665039 -0.61328125 5.44335938 C-0.40265295 3.62961565 -0.20047014 1.81489457 0 0 Z " fill="#E8D7FF" transform="translate(184,176)"/>
<path d="M0 0 C3.625 0.1875 3.625 0.1875 6.625 2.1875 C6.91796875 4.7890625 6.91796875 4.7890625 6.8125 7.8125 C6.78542969 8.81539062 6.75835937 9.81828125 6.73046875 10.8515625 C6.69566406 11.62242187 6.66085937 12.39328125 6.625 13.1875 C7.285 13.1875 7.945 13.1875 8.625 13.1875 C8.625 14.1775 8.625 15.1675 8.625 16.1875 C7.655625 16.001875 6.68625 15.81625 5.6875 15.625 C4.676875 15.480625 3.66625 15.33625 2.625 15.1875 C2.295 15.5175 1.965 15.8475 1.625 16.1875 C-1.3125 16.375 -1.3125 16.375 -4.375 16.1875 C-6.375 14.1875 -6.375 14.1875 -6.625 11.6875 C-6.375 9.1875 -6.375 9.1875 -4.375 7.1875 C-2.05224823 6.78702556 0.28239357 6.4477896 2.625 6.1875 C2.625 5.1975 2.625 4.2075 2.625 3.1875 C-0.015 3.8475 -2.655 4.5075 -5.375 5.1875 C-4.13556338 0.22975352 -4.13556338 0.22975352 0 0 Z " fill="#BC53FF" transform="translate(327.375,233.8125)"/>
<path d="M0 0 C2.375 1.125 2.375 1.125 4 3 C4.25 6.1875 4.25 6.1875 4 9 C0.7 9 -2.6 9 -6 9 C-5.67 9.99 -5.34 10.98 -5 12 C-1.535 11.505 -1.535 11.505 2 11 C2 12.32 2 13.64 2 15 C0.12735324 16.87264676 -2.49759947 16.23607378 -4.9921875 16.328125 C-7 16 -7 16 -8.73046875 14.796875 C-10.39940529 12.4346879 -10.43322233 10.87459624 -10.4375 8 C-10.45683594 7.13375 -10.47617187 6.2675 -10.49609375 5.375 C-10 3 -10 3 -8.16015625 1.2109375 C-5.22908838 -0.43215661 -3.31291517 -0.4141144 0 0 Z " fill="#C363FF" transform="translate(367,234)"/>
<path d="M0 0 C2.3125 1.0625 2.3125 1.0625 4 3 C4.57491549 6.95254396 4.61372366 9.07941451 2.375 12.4375 C-0.71685231 14.47161336 -2.36367425 14.60605429 -6 14 C-8.375 12.4375 -8.375 12.4375 -10 10 C-10.5625 6.4375 -10.5625 6.4375 -10 3 C-6.85858926 0.21760763 -4.14324768 -0.63742272 0 0 Z " fill="#A9AAFF" transform="translate(160,237)"/>
<path d="M0 0 C0.85851562 -0.01160156 1.71703125 -0.02320313 2.6015625 -0.03515625 C3.4265625 -0.03128906 4.2515625 -0.02742187 5.1015625 -0.0234375 C6.22425537 -0.01836182 6.22425537 -0.01836182 7.36962891 -0.01318359 C9.91272858 0.47908917 10.80846151 1.34588411 12.375 3.375 C12.703125 5.75 12.703125 5.75 12.625 8.375 C12.60953125 9.24125 12.5940625 10.1075 12.578125 11 C12.375 13.375 12.375 13.375 11.375 16.375 C10.715 16.375 10.055 16.375 9.375 16.375 C9.375 13.075 9.375 9.775 9.375 6.375 C0.465 6.045 -8.445 5.715 -17.625 5.375 C-16.635 4.715 -15.645 4.055 -14.625 3.375 C-13.59246094 2.58222656 -13.59246094 2.58222656 -12.5390625 1.7734375 C-8.35501704 -0.23445563 -4.57990045 -0.06245319 0 0 Z " fill="#6C6EFF" transform="translate(170.625,171.625)"/>
<path d="M0 0 C1.32 0 2.64 0 4 0 C4 0.66 4 1.32 4 2 C4.99 1.34 5.98 0.68 7 0 C9.74830816 -0.34353852 11.3131396 -0.46008226 13.64453125 1.1015625 C15.66532919 3.93184434 15.28923792 6.26232349 15.1875 9.6875 C15.16042969 10.86699219 15.13335937 12.04648438 15.10546875 13.26171875 C15.07066406 14.16535156 15.03585937 15.06898438 15 16 C13.68 16 12.36 16 11 16 C10.67 12.04 10.34 8.08 10 4 C8.68 4 7.36 4 6 4 C5.67 7.96 5.34 11.92 5 16 C3.35 16 1.7 16 0 16 C0 10.72 0 5.44 0 0 Z " fill="#C568FF" transform="translate(277,234)"/>
<path d="M0 0 C0.66 0.33 1.32 0.66 2 1 C1.67 1.33 1.34 1.66 1 2 C0.76924918 3.34747084 0.58846937 4.70377565 0.4375 6.0625 C0.2209375 8.0115625 0.2209375 8.0115625 0 10 C0.99 9.67 1.98 9.34 3 9 C3 7.02 3 5.04 3 3 C8.28 3 13.56 3 19 3 C19 4.32 19 5.64 19 7 C15.57905758 9.28062828 14.31812778 9.21925007 10.3125 9.125 C8.82169922 9.09792969 8.82169922 9.09792969 7.30078125 9.0703125 C6.54152344 9.04710937 5.78226563 9.02390625 5 9 C5 9.99 5 10.98 5 12 C9.29 12 13.58 12 18 12 C18 12.33 18 12.66 18 13 C15.43635517 13.10845031 12.87733721 13.18749744 10.3125 13.25 C9.59126953 13.28351563 8.87003906 13.31703125 8.12695312 13.3515625 C4.26096423 13.42217417 2.39822555 13.2405946 -1 11.1875 C-3 9 -3 9 -3.3125 5.75 C-3.209375 4.8425 -3.10625 3.935 -3 3 C-2.34 3 -1.68 3 -1 3 C-0.67 2.01 -0.34 1.02 0 0 Z " fill="#859DFF" transform="translate(59,152)"/>
<path d="M0 0 C0.99 0 1.98 0 3 0 C3 0.66 3 1.32 3 2 C3.99 1.34 4.98 0.68 6 0 C9.0625 -0.25 9.0625 -0.25 12 0 C14 2 14 2 14.1953125 5.2578125 C14.16050781 7.17207031 14.16050781 7.17207031 14.125 9.125 C14.10695313 10.40632812 14.08890625 11.68765625 14.0703125 13.0078125 C14.04710937 13.99523437 14.02390625 14.98265625 14 16 C12.68 16 11.36 16 10 16 C9.67 12.04 9.34 8.08 9 4 C7.68 4.33 6.36 4.66 5 5 C4.67 8.63 4.34 12.26 4 16 C2.68 16 1.36 16 0 16 C0 10.72 0 5.44 0 0 Z " fill="#BC51FF" transform="translate(339,234)"/>
<path d="M0 0 C2.96527758 2.4453385 3.55582214 4.44602347 4.1875 8.1875 C4.34605469 9.08855469 4.50460938 9.98960937 4.66796875 10.91796875 C4.83232422 11.94857422 4.83232422 11.94857422 5 13 C12.18095438 13.17989865 19.01664406 12.4801584 26.125 11.5 C38.65931463 9.78445262 38.65931463 9.78445262 45 10 C44.28904804 14.66755415 41.61954692 16.58534152 38.14453125 19.515625 C35.47149058 21.36581709 33.23735816 21.91906605 30 22 C32.12269902 19.72006402 33.98095386 18.01107334 36.6875 16.4375 C39.30410442 15.15227904 39.30410442 15.15227904 40 12 C39.22922119 12.12117187 38.45844238 12.24234375 37.66430664 12.3671875 C34.13142839 12.91849568 30.59701961 13.45931896 27.0625 14 C25.85013672 14.19078125 24.63777344 14.3815625 23.38867188 14.578125 C16.86616453 15.56799061 10.59883583 16.44038112 4 16 C1.18515955 13.18515955 1.37242958 10.7833753 0.875 6.875 C0.70742187 5.59367188 0.53984375 4.31234375 0.3671875 2.9921875 C0.24601562 2.00476563 0.12484375 1.01734375 0 0 Z " fill="#F0C6FF" transform="translate(122,149)"/>
<path d="M0 0 C11.22 0 22.44 0 34 0 C34.495 1.98 34.495 1.98 35 4 C23.45 4 11.9 4 0 4 C0 2.68 0 1.36 0 0 Z " fill="#6A64FF" transform="translate(49,180)"/>
<path d="M0 0 C8.3984375 -0.1953125 8.3984375 -0.1953125 11 0 C13 2 13 2 13.3125 4.9375 C13 8 13 8 11.8046875 9.6796875 C9.37261522 11.45899579 7.79170104 11.30357277 4.8125 11.1875 C3.224375 11.125625 1.63625 11.06375 0 11 C0 7.37 0 3.74 0 0 Z " fill="#F9F9F9" transform="translate(425,164)"/>
<path d="M0 0 C1.32 0 2.64 0 4 0 C4 0.99 4 1.98 4 3 C14.89 2.67 25.78 2.34 37 2 C33.56223003 5.43776997 30.29076427 5.12824166 25.65234375 5.1328125 C24.40775391 5.13410156 23.16316406 5.13539063 21.88085938 5.13671875 C20.57955078 5.13285156 19.27824219 5.12898437 17.9375 5.125 C16.63232422 5.12886719 15.32714844 5.13273438 13.98242188 5.13671875 C12.1174707 5.13478516 12.1174707 5.13478516 10.21484375 5.1328125 C9.07136475 5.13168457 7.92788574 5.13055664 6.74975586 5.12939453 C4 5 4 5 2 4 C2 3.34 2 2.68 2 2 C1.40832031 2.49113281 0.81664063 2.98226562 0.20703125 3.48828125 C-4.57949583 5.74453701 -9.09469204 5.31769482 -14.3125 5.1875 C-15.33923828 5.17396484 -16.36597656 5.16042969 -17.42382812 5.14648438 C-19.94975909 5.11123883 -22.4746066 5.061967 -25 5 C-25 4.34 -25 3.68 -25 3 C-24.31373535 2.98018066 -23.6274707 2.96036133 -22.92041016 2.93994141 C-19.82154221 2.84489055 -16.72336706 2.73513153 -13.625 2.625 C-12.54476562 2.5940625 -11.46453125 2.563125 -10.3515625 2.53125 C-9.3203125 2.49257812 -8.2890625 2.45390625 -7.2265625 2.4140625 C-6.27346191 2.3826416 -5.32036133 2.3512207 -4.33837891 2.31884766 C-1.81104824 2.21444204 -1.81104824 2.21444204 0 0 Z " fill="#BCADFF" transform="translate(121,168)"/>
<path d="M0 0 C0.66 0.33 1.32 0.66 2 1 C2.15662651 10.39759036 2.15662651 10.39759036 1 13 C-2.36274424 16.25841089 -4.97629036 16.3803279 -9.5625 16.3125 C-11.26599609 16.30669922 -11.26599609 16.30669922 -13.00390625 16.30078125 C-16 16 -16 16 -19 14 C-19.6875 11.875 -19.6875 11.875 -20 10 C-19.34 10 -18.68 10 -18 10 C-17.34 10.66 -16.68 11.32 -16 12 C-15.67 11.34 -15.34 10.68 -15 10 C-13.741875 10.061875 -12.48375 10.12375 -11.1875 10.1875 C-7.92278706 10.27364398 -7.92278706 10.27364398 -5.25 8.5625 C-4.8375 8.046875 -4.425 7.53125 -4 7 C-1.8125 6.3125 -1.8125 6.3125 0 6 C0 4.02 0 2.04 0 0 Z " fill="#C94FFF" transform="translate(167,240)"/>
<path d="M0 0 C1.01255859 0.01458252 2.02511719 0.02916504 3.06835938 0.04418945 C4.72544922 0.05675781 4.72544922 0.05675781 6.41601562 0.06958008 C8.14658203 0.11308594 8.14658203 0.11308594 9.91210938 0.1574707 C11.64267578 0.17197266 11.64267578 0.17197266 13.40820312 0.18676758 C21.90453434 0.30077902 21.90453434 0.30077902 25.41210938 1.4699707 C25.74210937 2.4599707 26.07210937 3.4499707 26.41210938 4.4699707 C25.75210938 4.4699707 25.09210938 4.4699707 24.41210938 4.4699707 C24.41210938 3.8099707 24.41210938 3.1499707 24.41210938 2.4699707 C18.47210938 2.9649707 18.47210938 2.9649707 12.41210938 3.4699707 C12.41210938 4.1299707 12.41210938 4.7899707 12.41210938 5.4699707 C7.46210937 5.4699707 2.51210937 5.4699707 -2.58789062 5.4699707 C-2.25789063 7.7799707 -1.92789063 10.0899707 -1.58789062 12.4699707 C-2.90789063 12.4699707 -4.22789063 12.4699707 -5.58789062 12.4699707 C-5.95471074 5.13356836 -5.95471074 5.13356836 -4.4230957 2.36279297 C-2.58789062 0.4699707 -2.58789062 0.4699707 0 0 Z " fill="#5D86FF" transform="translate(64.587890625,149.530029296875)"/>
<path d="M0 0 C1.485 0.99 1.485 0.99 3 2 C5.31923274 2.36576054 5.31923274 2.36576054 7.88671875 2.4140625 C8.82451172 2.45273438 9.76230469 2.49140625 10.72851562 2.53125 C11.70498047 2.5621875 12.68144531 2.593125 13.6875 2.625 C14.67556641 2.66367188 15.66363281 2.70234375 16.68164062 2.7421875 C19.12090707 2.83645867 21.56016595 2.92206218 24 3 C23.34 4.32 22.68 5.64 22 7 C16.06 7 10.12 7 4 7 C4 8.98 4 10.96 4 13 C3.01 13.495 3.01 13.495 2 14 C1.855625 12.865625 1.71125 11.73125 1.5625 10.5625 C1.38828522 7.19222799 1.38828522 7.19222799 0 6 C-0.04080783 4.00041636 -0.04254356 1.99954746 0 0 Z " fill="#5D63FF" transform="translate(93,170)"/>
<path d="M0 0 C5.19426671 3.659597 6.33542756 8.13019191 8 14 C13.94 14 19.88 14 26 14 C26 14.33 26 14.66 26 15 C18.90294338 16.34495828 12.2274605 17.24091535 5 17 C4.87882812 16.22914063 4.75765625 15.45828125 4.6328125 14.6640625 C4.46523437 13.66117188 4.29765625 12.65828125 4.125 11.625 C3.88136719 10.12839844 3.88136719 10.12839844 3.6328125 8.6015625 C3.2041198 5.8574885 3.2041198 5.8574885 1 4 C-1.30164566 3.68051829 -1.30164566 3.68051829 -3.875 3.75 C-4.73867187 3.74484375 -5.60234375 3.7396875 -6.4921875 3.734375 C-9.10473577 4.01109351 -10.7500088 4.6814005 -13 6 C-13 8.64 -13 11.28 -13 14 C-13.66 13.67 -14.32 13.34 -15 13 C-15.5 9.875 -15.5 9.875 -15 6 C-10.95930429 1.26015083 -6.2671732 -1.30073406 0 0 Z " fill="#EFC3FF" transform="translate(124,142)"/>
<path d="M0 0 C0.33 1.32 0.66 2.64 1 4 C0.04287109 4.09087891 0.04287109 4.09087891 -0.93359375 4.18359375 C-1.75988281 4.26738281 -2.58617188 4.35117188 -3.4375 4.4375 C-4.67306641 4.55931641 -4.67306641 4.55931641 -5.93359375 4.68359375 C-7.98662025 4.78930815 -7.98662025 4.78930815 -9 6 C-9.41453713 12.3149985 -9.41453713 12.3149985 -7 18 C-9 18 -9 18 -10.625 16.5 C-11.07875 16.005 -11.5325 15.51 -12 15 C-11.67 16.32 -11.34 17.64 -11 19 C-14.00094689 16.12952906 -14.95312147 14.8594398 -15.1875 10.5625 C-15 7 -15 7 -13 4 C-12.34 4 -11.68 4 -11 4 C-11 3.34 -11 2.68 -11 2 C-7.17010894 0.19769832 -4.21878192 -0.19622241 0 0 Z " fill="#B943FF" transform="translate(117,234)"/>
<path d="M0 0 C2 1 2 1 3.0703125 3.6171875 C3.59238281 5.22980469 3.59238281 5.22980469 4.125 6.875 C4.47820312 7.94492188 4.83140625 9.01484375 5.1953125 10.1171875 C6 13 6 13 6 16 C2.7 16 -0.6 16 -4 16 C-3.47606294 10.13190493 -2.23891142 5.45126259 0 0 Z " fill="#F1F1F1" transform="translate(264,166)"/>
<path d="M0 0 C1.98 0 3.96 0 6 0 C6.17128418 0.76143311 6.34256836 1.52286621 6.51904297 2.30737305 C7.30011217 5.76839034 8.08748839 9.22794317 8.875 12.6875 C9.14441406 13.88568359 9.41382812 15.08386719 9.69140625 16.31835938 C9.95566406 17.47529297 10.21992187 18.63222656 10.4921875 19.82421875 C10.73308105 20.88729248 10.97397461 21.95036621 11.22216797 23.0456543 C11.95254679 25.81976418 12.93513894 28.34226816 14 31 C14.3496418 33.33094534 14.68554487 35.66404762 15 38 C15.33 38.33 15.66 38.66 16 39 C16.400383 41.85528607 16.7518227 44.69736487 17.0625 47.5625 C17.15337891 48.36880859 17.24425781 49.17511719 17.33789062 50.00585938 C17.56247449 52.00347377 17.78173236 54.0016856 18 56 C16.09234178 53.13851267 15.5716491 51.64699621 14.9375 48.375 C14.52905984 45.40230348 14.52905984 45.40230348 13 43 C12.92820036 41.48071962 12.91607993 39.95832518 12.9375 38.4375 C12.94652344 37.61121094 12.95554687 36.78492188 12.96484375 35.93359375 C12.97644531 35.29550781 12.98804687 34.65742188 13 34 C12.34 34 11.68 34 11 34 C10.855625 32.865625 10.71125 31.73125 10.5625 30.5625 C10.38828522 27.19222799 10.38828522 27.19222799 9 26 C8.68076508 23.9427083 8.48838648 21.88386479 8.28125 19.8125 C8.18001957 17.9832467 8.18001957 17.9832467 7 17 C6.4380482 14.48140772 5.92023227 11.97126697 5.4375 9.4375 C5.29892578 8.72658203 5.16035156 8.01566406 5.01757812 7.28320312 C4.67494946 5.52280068 4.33703447 3.76148203 4 2 C3.01 1.67 2.02 1.34 1 1 C0.67 2.32 0.34 3.64 0 5 C0 3.35 0 1.7 0 0 Z " fill="#D4D8FF" transform="translate(82,156)"/>
<path d="M0 0 C1.32 0 2.64 0 4 0 C4.33 5.94 4.66 11.88 5 18 C5.66 18.33 6.32 18.66 7 19 C7 19.99 7 20.98 7 22 C4.625 22.125 4.625 22.125 2 22 C0 20 0 20 -0.22705078 17.93701172 C-0.21657715 17.10959473 -0.20610352 16.28217773 -0.1953125 15.4296875 C-0.18886719 14.53378906 -0.18242187 13.63789063 -0.17578125 12.71484375 C-0.15902344 11.77769531 -0.14226562 10.84054688 -0.125 9.875 C-0.11597656 8.93011719 -0.10695313 7.98523438 -0.09765625 7.01171875 C-0.07404522 4.67422708 -0.04111516 2.33723877 0 0 Z " fill="#C05BFF" transform="translate(374,228)"/>
<path d="M0 0 C0.80103149 0.00202423 1.60206299 0.00404846 2.42736816 0.00613403 C3.24483521 0.00517731 4.06230225 0.00422058 4.90454102 0.00323486 C6.63627194 0.00255308 8.3680054 0.00440724 10.09973145 0.00857544 C12.75978298 0.01392374 15.41966566 0.00863041 18.07971191 0.00222778 C19.75809771 0.00288857 21.43648339 0.00416973 23.11486816 0.00613403 C23.91589966 0.0041098 24.71693115 0.00208557 25.54223633 0 C31.15616738 0.02399575 31.15616738 0.02399575 32.27111816 1.13894653 C32.27111816 2.78894653 32.27111816 4.43894653 32.27111816 6.13894653 C19.40111816 6.13894653 6.53111816 6.13894653 -6.72888184 6.13894653 C-6.72888184 -0.75282958 -6.27879971 0.02683761 0 0 Z M-4.72888184 1.13894653 C-4.72888184 2.45894653 -4.72888184 3.77894653 -4.72888184 5.13894653 C6.82111816 5.13894653 18.37111816 5.13894653 30.27111816 5.13894653 C29.77611816 3.15894653 29.77611816 3.15894653 29.27111816 1.13894653 C18.05111816 1.13894653 6.83111816 1.13894653 -4.72888184 1.13894653 Z " fill="#B9B6FF" transform="translate(53.7288818359375,178.86105346679688)"/>
<path d="M0 0 C0.66 0 1.32 0 2 0 C2 0.66 2 1.32 2 2 C5.60447434 1.8612119 9.20848712 1.71276065 12.8125 1.5625 C13.83666016 1.52318359 14.86082031 1.48386719 15.91601562 1.44335938 C16.89892578 1.40146484 17.88183594 1.35957031 18.89453125 1.31640625 C19.80050049 1.27974854 20.70646973 1.24309082 21.63989258 1.20532227 C24.15048782 1.0791795 24.15048782 1.0791795 27 0 C27.103125 1.0725 27.20625 2.145 27.3125 3.25 C27.97400493 6.85820872 28.57483421 8.36395023 31 11 C30.01 11.33 29.02 11.66 28 12 C27.67 11.01 27.34 10.02 27 9 C26.34 9 25.68 9 25 9 C24.67 7.68 24.34 6.36 24 5 C17.07 4.67 10.14 4.34 3 4 C3 4.66 3 5.32 3 6 C2.01 6 1.02 6 0 6 C0 4.02 0 2.04 0 0 Z " fill="#B72DFF" transform="translate(122,241)"/>
<path d="M0 0 C9.9 0 19.8 0 30 0 C30 0.99 30 1.98 30 3 C20.1 3 10.2 3 0 3 C0 2.01 0 1.02 0 0 Z " fill="#8B49FF" transform="translate(63,210)"/>
<path d="M0 0 C0.33 0 0.66 0 1 0 C1.20496094 1.07121094 1.40992187 2.14242187 1.62109375 3.24609375 C1.89302709 4.64326851 2.16517352 6.04040181 2.4375 7.4375 C2.57220703 8.14455078 2.70691406 8.85160156 2.84570312 9.58007812 C3.28406898 13.08429264 3.28406898 13.08429264 5 16 C5.28994018 18.26387634 5.50707537 20.5372751 5.6875 22.8125 C5.79449219 24.05644531 5.90148437 25.30039063 6.01171875 26.58203125 C6.00056481 29.83526392 5.75394374 31.3321239 4 34 C1.09557295 29.64335943 -1.44937628 24.92094581 -0.625 19.5625 C-0.41875 19.046875 -0.2125 18.53125 0 18 C0.33 18.33 0.66 18.66 1 19 C1.020625 17.741875 1.04125 16.48375 1.0625 15.1875 C1.07410156 14.47980469 1.08570312 13.77210938 1.09765625 13.04296875 C1.08263217 10.79694539 1.08263217 10.79694539 0 8 C-0.12781786 5.32605036 -0.04391871 2.67904143 0 0 Z " fill="#A37CFF" transform="translate(99,183)"/>
<path d="M0 0 C9.24 0 18.48 0 28 0 C25 3 25 3 22.27270508 3.34057617 C21.19915771 3.32486572 20.12561035 3.30915527 19.01953125 3.29296875 C17.85615234 3.28330078 16.69277344 3.27363281 15.49414062 3.26367188 C14.27919922 3.23853516 13.06425781 3.21339844 11.8125 3.1875 C10.58595703 3.17396484 9.35941406 3.16042969 8.09570312 3.14648438 C5.06336336 3.11108741 2.03190004 3.0617076 -1 3 C-0.67 2.01 -0.34 1.02 0 0 Z " fill="#5C59FF" transform="translate(123,173)"/>
<path d="M0 0 C0.66 0.33 1.32 0.66 2 1 C2.37507435 7.77912154 1.73966974 12.80888359 -1 19 C-2.59260737 23.33543118 -3.4493536 27.41127997 -4 32 C-4.66 32 -5.32 32 -6 32 C-6 33.98 -6 35.96 -6 38 C-6.66 38 -7.32 38 -8 38 C-8 38.99 -8 39.98 -8 41 C-8.99 41 -9.98 41 -11 41 C-11 40.34 -11 39.68 -11 39 C-10.34 39 -9.68 39 -9 39 C-8.89042969 38.3709375 -8.78085938 37.741875 -8.66796875 37.09375 C-7.4656905 30.60340236 -5.75821386 24.7982788 -2.9765625 18.7890625 C-1.69314034 15.12360882 -1.29443143 11.53458013 -0.875 7.6875 C-0.78863281 6.94693359 -0.70226562 6.20636719 -0.61328125 5.44335938 C-0.40265295 3.62961565 -0.20047014 1.81489457 0 0 Z " fill="#DFD9FF" transform="translate(184,176)"/>
<path d="M0 0 C6.93 0 13.86 0 21 0 C21.66 1.98 22.32 3.96 23 6 C22.67 6.66 22.34 7.32 22 8 C21.34 7.34 20.68 6.68 20 6 C20 5.01 20 4.02 20 3 C13.4 3 6.8 3 0 3 C0 2.01 0 1.02 0 0 Z " fill="#D073FF" transform="translate(125,245)"/>
<path d="M0 0 C0.33 0 0.66 0 1 0 C1.37224064 10.09185744 -0.24079547 17.11615155 -5 26 C-5.66 26 -6.32 26 -7 26 C-7.042721 24.33388095 -7.04063832 22.66617115 -7 21 C-6.67 20.67 -6.34 20.34 -6 20 C-5.77486899 18.66197814 -5.60639193 17.31426977 -5.46484375 15.96484375 C-5.37783203 15.15595703 -5.29082031 14.34707031 -5.20117188 13.51367188 C-5.11416016 12.66353516 -5.02714844 11.81339844 -4.9375 10.9375 C-4.84662109 10.08349609 -4.75574219 9.22949219 -4.66210938 8.34960938 C-4.43749278 6.23348465 -4.21824773 4.11679106 -4 2 C-3.67 2 -3.34 2 -3 2 C-3 5.3 -3 8.6 -3 12 C-2.34 12 -1.68 12 -1 12 C-0.67 8.04 -0.34 4.08 0 0 Z " fill="#765BFF" transform="translate(183,176)"/>
<path d="M0 0 C4.45323246 -0.3610729 4.45323246 -0.3610729 6.65625 1.09375 C8.65709853 3.93216303 8.28913696 6.26572244 8.1875 9.6875 C8.16042969 10.86699219 8.13335937 12.04648438 8.10546875 13.26171875 C8.07066406 14.16535156 8.03585937 15.06898438 8 16 C6.68 16 5.36 16 4 16 C3.97421875 15.15695313 3.9484375 14.31390625 3.921875 13.4453125 C3.83679688 11.80175781 3.83679688 11.80175781 3.75 10.125 C3.70359375 9.03445312 3.6571875 7.94390625 3.609375 6.8203125 C3.31153872 3.8667935 3.31153872 3.8667935 0.953125 2.6171875 C0.30859375 2.41351563 -0.3359375 2.20984375 -1 2 C-0.67 1.34 -0.34 0.68 0 0 Z " fill="#BD53FF" transform="translate(284,234)"/>
<path d="M0 0 C1.32 0 2.64 0 4 0 C4 5.28 4 10.56 4 16 C2.68 16 1.36 16 0 16 C0 10.72 0 5.44 0 0 Z " fill="#BA4CFF" transform="translate(269,234)"/>
<path d="M0 0 C3.96 0 7.92 0 12 0 C11.67 1.65 11.34 3.3 11 5 C10.34 5 9.68 5 9 5 C9 5.66 9 6.32 9 7 C5.625 7.1875 5.625 7.1875 2 7 C0 4 0 4 0 0 Z " fill="#B8B1FF" transform="translate(108,245)"/>
<path d="M0 0 C0.33 1.32 0.66 2.64 1 4 C1.66 4 2.32 4 3 4 C2.625 5.9375 2.625 5.9375 2 8 C-1.00313748 9.50156874 -3.79067522 9.09281204 -7.125 9.0625 C-8.40632813 9.05347656 -9.68765625 9.04445312 -11.0078125 9.03515625 C-12.48894531 9.01775391 -12.48894531 9.01775391 -14 9 C-14 8.01 -14 7.02 -14 6 C-13.24074219 5.93941406 -12.48148437 5.87882813 -11.69921875 5.81640625 C-10.70535156 5.73261719 -9.71148437 5.64882812 -8.6875 5.5625 C-7.70136719 5.48128906 -6.71523437 5.40007812 -5.69921875 5.31640625 C-2.90624401 5.08187441 -2.90624401 5.08187441 0 4 C0 2.68 0 1.36 0 0 Z " fill="#4A6BFF" transform="translate(78,155)"/>
<path d="M0 0 C1.14662109 -0.02513672 1.14662109 -0.02513672 2.31640625 -0.05078125 C4.91647923 0.39453512 5.78581388 1.31253502 7.4375 3.3125 C6.77363281 3.30089844 6.10976562 3.28929687 5.42578125 3.27734375 C-1.12556787 3.19356591 -1.12556787 3.19356591 -7.5625 4.3125 C-7.5625 4.9725 -7.5625 5.6325 -7.5625 6.3125 C-8.2225 6.3125 -8.8825 6.3125 -9.5625 6.3125 C-11.11049337 10.95648011 -11.05844333 15.63767708 -9.5625 20.3125 C-10.2225 20.3125 -10.8825 20.3125 -11.5625 20.3125 C-12.78735812 17.86278376 -12.72972808 16.17015539 -12.75 13.4375 C-12.76417969 12.57382813 -12.77835937 11.71015625 -12.79296875 10.8203125 C-12.55109252 8.1883712 -11.89233541 6.57269456 -10.5625 4.3125 C-9.9025 4.3125 -9.2425 4.3125 -8.5625 4.3125 C-8.5625 3.6525 -8.5625 2.9925 -8.5625 2.3125 C-5.60294139 0.62036057 -3.40550083 0.01728681 0 0 Z " fill="#D28FFF" transform="translate(113.5625,231.6875)"/>
<path d="M0 0 C3.53571429 0.53571429 3.53571429 0.53571429 5 2 C5.1875 4.9375 5.1875 4.9375 5 8 C4.34 8.66 3.68 9.32 3 10 C-0.53571429 9.46428571 -0.53571429 9.46428571 -2 8 C-2.1875 5.0625 -2.1875 5.0625 -2 2 C-1.34 1.34 -0.68 0.68 0 0 Z " fill="#FBF5FF" transform="translate(228,237)"/>
<path d="M0 0 C0.66 0.66 1.32 1.32 2 2 C1.39671875 1.94199219 0.7934375 1.88398438 0.171875 1.82421875 C-5.10878169 1.47512375 -5.10878169 1.47512375 -9.5625 4.0625 C-11.3091554 7.63175234 -11.29123528 10.06832371 -11 14 C-11 14.99 -11 15.98 -11 17 C-13 15 -13 15 -13.125 11.375 C-13.08375 10.26125 -13.0425 9.1475 -13 8 C-13.99 8.33 -14.98 8.66 -16 9 C-16 5 -16 5 -13.625 2.25 C-9.56976692 -0.90299223 -4.9229478 -0.84115115 0 0 Z " fill="#B752FF" transform="translate(162,233)"/>
<path d="M0 0 C2.28062828 3.42094242 2.21925007 4.68187222 2.125 8.6875 C2.10695313 9.68136719 2.08890625 10.67523438 2.0703125 11.69921875 C2.03550781 12.83810547 2.03550781 12.83810547 2 14 C-1.82932166 11.63347921 -1.82932166 11.63347921 -2.609375 8.73828125 C-2.65578125 7.93777344 -2.7021875 7.13726562 -2.75 6.3125 C-2.80671875 5.50425781 -2.8634375 4.69601563 -2.921875 3.86328125 C-2.94765625 3.24839844 -2.9734375 2.63351563 -3 2 C-4.98 2 -6.96 2 -9 2 C-9 3.65 -9 5.3 -9 7 C-9.33 7 -9.66 7 -10 7 C-10 5.02 -10 3.04 -10 1 C-7.36 1 -4.72 1 -2 1 C-2 2.32 -2 3.64 -2 5 C-1.34 5 -0.68 5 0 5 C0 3.35 0 1.7 0 0 Z " fill="#6582FF" transform="translate(91,154)"/>
<path d="M0 0 C1.32 0.33 2.64 0.66 4 1 C4 1.99 4 2.98 4 4 C4.99 4 5.98 4 7 4 C7 4.99 7 5.98 7 7 C13.93 7 20.86 7 28 7 C28 7.33 28 7.66 28 8 C20.74 8 13.48 8 6 8 C6 7.34 6 6.68 6 6 C5.34 6 4.68 6 4 6 C4 7.98 4 9.96 4 12 C3.67 12 3.34 12 3 12 C1.82923301 8.01939223 0.74250597 4.08378283 0 0 Z " fill="#BD56FF" transform="translate(118,235)"/>
<path d="M0 0 C1.670625 0.00290039 1.670625 0.00290039 3.375 0.00585938 C4.53773438 0.01810547 5.70046875 0.03035156 6.8984375 0.04296875 C8.06890625 0.04361328 9.239375 0.04425781 10.4453125 0.04492188 C19.13324526 0.09027651 19.13324526 0.09027651 20.2734375 1.23046875 C20.95439977 7.33293833 20.04477356 11.80326897 17.2734375 17.23046875 C15.72765123 14.13889622 16.67066117 11.54573856 17.2734375 8.23046875 C17.6034375 7.90046875 17.9334375 7.57046875 18.2734375 7.23046875 C18.2734375 5.58046875 18.2734375 3.93046875 18.2734375 2.23046875 C9.3634375 2.23046875 0.4534375 2.23046875 -8.7265625 2.23046875 C-5.29681187 -0.05603167 -4.03074479 -0.01615339 0 0 Z " fill="#D0CCFF" transform="translate(158.7265625,176.76953125)"/>
<path d="M0 0 C0.66 0 1.32 0 2 0 C2 0.66 2 1.32 2 2 C2.66 2.33 3.32 2.66 4 3 C3.34 3 2.68 3 2 3 C1.7525 3.556875 1.505 4.11375 1.25 4.6875 C-0.22924818 7.42410913 -1.93467439 9.67650869 -4 12 C-4.66 12 -5.32 12 -6 12 C-6.3125 9.3125 -6.3125 9.3125 -6 6 C-3.5625 3.1875 -3.5625 3.1875 -1 1 C-0.67 0.67 -0.34 0.34 0 0 Z " fill="#AB43FF" transform="translate(121,170)"/>
<path d="M0 0 C0.66 0 1.32 0 2 0 C2.51172094 1.3706811 3.00877492 2.74684075 3.5 4.125 C3.7784375 4.89070312 4.056875 5.65640625 4.34375 6.4453125 C5 9 5 9 5 15 C12.26 15 19.52 15 27 15 C27 15.33 27 15.66 27 16 C19.41 16 11.82 16 4 16 C2.6853025 12.05590749 1.63394576 8.63657043 0.875 4.625 C0.70742187 3.75101563 0.53984375 2.87703125 0.3671875 1.9765625 C0.24601562 1.32429687 0.12484375 0.67203125 0 0 Z " fill="#DDE1FF" transform="translate(92,155)"/>
<path d="M0 0 C0.33 0.99 0.66 1.98 1 3 C-0.125 4.5 -0.125 4.5 -2 6 C-5.28498832 6.41062354 -7.15845419 6.6171336 -9.875 4.625 C-11 3 -11 3 -11 1 C-5.555 0.505 -5.555 0.505 0 0 Z " fill="#BDACFF" transform="translate(162,245)"/>
<path d="M0 0 C1.9375 0.375 1.9375 0.375 4 1 C5.4783226 3.95664519 5.06032783 6.74229737 5 10 C3.35 10.66 1.7 11.32 0 12 C0.33 11.34 0.66 10.68 1 10 C1.66 10 2.32 10 3 10 C3 8.02 3 6.04 3 4 C0.24616077 5.37691962 -0.51483101 7.36720042 -2 10 C-2.66 9.67 -3.32 9.34 -4 9 C-3.01 7.35 -2.02 5.7 -1 4 C-2.98 4 -4.96 4 -7 4 C-7 3.67 -7 3.34 -7 3 C-4.69 3 -2.38 3 0 3 C0 2.01 0 1.02 0 0 Z " fill="#E8A3FF" transform="translate(168,155)"/>
<path d="M0 0 C4.29 0 8.58 0 13 0 C13 1.32 13 2.64 13 4 C11.20841511 4.02696365 9.41671527 4.04637917 7.625 4.0625 C6.62726563 4.07410156 5.62953125 4.08570313 4.6015625 4.09765625 C2 4 2 4 0 3 C0 2.01 0 1.02 0 0 Z " fill="#E2E8FF" transform="translate(63,156)"/>
<path d="M0 0 C2.64 0 5.28 0 8 0 C8.66 1.32 9.32 2.64 10 4 C7.59454362 5.20272819 6.05003047 5.10071472 3.375 5.0625 C2.14910156 5.04896484 2.14910156 5.04896484 0.8984375 5.03515625 C-0.04128906 5.01775391 -0.04128906 5.01775391 -1 5 C-1.33 4.01 -1.66 3.02 -2 2 C-1.34 2 -0.68 2 0 2 C0 1.34 0 0.68 0 0 Z " fill="#99B7FF" transform="translate(110,239)"/>
<path d="M0 0 C2.64 0 5.28 0 8 0 C8 0.66 8 1.32 8 2 C8.66 2 9.32 2 10 2 C9.67 2.99 9.34 3.98 9 5 C6.03 5 3.06 5 0 5 C-0.33 4.01 -0.66 3.02 -1 2 C-0.67 1.34 -0.34 0.68 0 0 Z " fill="#99B9FF" transform="translate(153,239)"/>
<path d="M0 0 C0.78375 0.04125 1.5675 0.0825 2.375 0.125 C2.375 0.785 2.375 1.445 2.375 2.125 C1.385 2.62 1.385 2.62 0.375 3.125 C0.375 4.115 0.375 5.105 0.375 6.125 C1.365 6.455 2.355 6.785 3.375 7.125 C3.375 7.785 3.375 8.445 3.375 9.125 C0.5 9.25 0.5 9.25 -2.625 9.125 C-4.625 7.125 -4.625 7.125 -4.875 4.625 C-4.51649553 1.03995533 -3.59522993 0.17120143 0 0 Z " fill="#BC53FF" transform="translate(325.625,240.875)"/>
<path d="M0 0 C0.33 0.66 0.66 1.32 1 2 C-0.31089923 4.37210337 -1.74719304 6.62078956 -3.25 8.875 C-4.3749327 12.06230931 -3.62663933 14.74147548 -3 18 C1.05606165 17.53199289 4.46588679 17.12046792 8 15 C7.0625 17 7.0625 17 5 19 C1.9631078 19.47833833 -0.96489411 19.49529242 -4 19 C-6 17 -6 17 -6.5 13.4375 C-6.41938813 7.94581626 -3.25871655 4.18977842 0 0 Z " fill="#E392FF" transform="translate(112,184)"/>
<path d="M0 0 C-0.85360005 2.94880018 -1.38852783 4.59872139 -4 6.3125 C-8.33817243 7.30666451 -12.56983055 7.15484087 -17 7 C-17 6.67 -17 6.34 -17 6 C-15.515 5.62875 -15.515 5.62875 -14 5.25 C-10.30431956 4.21129552 -7.07117814 2.61984835 -3.69921875 0.8046875 C-2 0 -2 0 0 0 Z " fill="#AE3CFF" transform="translate(160,170)"/>
<path d="M0 0 C0.66 0.33 1.32 0.66 2 1 C1.67 1.33 1.34 1.66 1 2 C4.96 2.33 8.92 2.66 13 3 C13 3.66 13 4.32 13 5 C7.39 5 1.78 5 -4 5 C-3 2 -3 2 0 0 Z " fill="#E0D2FF" transform="translate(166,167)"/>
<path d="M0 0 C0 0.99 0 1.98 0 3 C-5.08086796 3.84681133 -9.84828377 4.09038099 -15 4 C-13 1 -13 1 -9.75 0.3125 C-6.47238165 0.03936514 -3.28601251 -0.08014665 0 0 Z " fill="#D456FF" transform="translate(168,155)"/>
<path d="M0 0 C0.61875 0.33 1.2375 0.66 1.875 1 C6.27240327 2.40716905 10.42311955 2.13963364 15 2 C15.99 2 16.98 2 18 2 C14.52233114 4.79909933 12.85664903 6.04355843 8.3125 5.8125 C5 5 5 5 2 4 C2 3.34 2 2.68 2 2 C1.34 2 0.68 2 0 2 C0 1.34 0 0.68 0 0 Z " fill="#E08BFF" transform="translate(104,252)"/>
<path d="M0 0 C0.99 0.495 0.99 0.495 2 1 C2.37400786 3.32716 2.70764733 5.66117862 3 8 C3.33 8.33 3.66 8.66 4 9 C4.400383 11.85528607 4.7518227 14.69736487 5.0625 17.5625 C5.15337891 18.36880859 5.24425781 19.17511719 5.33789062 20.00585938 C5.56247449 22.00347377 5.78173236 24.0016856 6 26 C4.09234178 23.13851267 3.5716491 21.64699621 2.9375 18.375 C2.52905984 15.40230348 2.52905984 15.40230348 1 13 C0.76518307 10.81707226 0.58636677 8.62796826 0.4375 6.4375 C0.35371094 5.23996094 0.26992187 4.04242188 0.18359375 2.80859375 C0.12300781 1.88175781 0.06242187 0.95492187 0 0 Z " fill="#C6B6FF" transform="translate(94,186)"/>
<path d="M0 0 C0.66 0 1.32 0 2 0 C3.86783046 5.48675196 4.2358396 10.22192976 4 16 C3.01 15.34 2.02 14.68 1 14 C0.48828125 10.7421875 0.48828125 10.7421875 0.3125 6.875 C0.24675781 5.59367188 0.18101563 4.31234375 0.11328125 2.9921875 C0.07589844 2.00476563 0.03851563 1.01734375 0 0 Z " fill="#7453FF" transform="translate(97,187)"/>
<path d="M0 0 C7.28089888 -0.48539326 7.28089888 -0.48539326 10.5 1.6875 C12.24633224 4.37976221 12.34982212 5.85160094 12 9 C10.29115995 7.37660195 8.62553283 5.70680947 7 4 C7 3.34 7 2.68 7 2 C4.36 2.33 1.72 2.66 -1 3 C-0.67 2.01 -0.34 1.02 0 0 Z " fill="#D24FFF" transform="translate(115,145)"/>
<path d="M0 0 C0.33 0 0.66 0 1 0 C1.33 1.98 1.66 3.96 2 6 C2.33 4.02 2.66 2.04 3 0 C3.33 0 3.66 0 4 0 C4.33 3.3 4.66 6.6 5 10 C4.34 10 3.68 10 3 10 C3.33 12.64 3.66 15.28 4 18 C3.34 17.67 2.68 17.34 2 17 C1.62599214 14.67284 1.29235267 12.33882138 1 10 C0.67 9.67 0.34 9.34 0 9 C-0.07179964 7.48071962 -0.08392007 5.95832518 -0.0625 4.4375 C-0.05347656 3.61121094 -0.04445313 2.78492188 -0.03515625 1.93359375 C-0.02355469 1.29550781 -0.01195313 0.65742188 0 0 Z " fill="#786CFF" transform="translate(94,177)"/>
<path d="M0 0 C0 0.33 0 0.66 0 1 C-1.7015625 1.2165625 -1.7015625 1.2165625 -3.4375 1.4375 C-6.80777201 1.61171478 -6.80777201 1.61171478 -8 3 C-5.03 3.495 -5.03 3.495 -2 4 C-2 4.33 -2 4.66 -2 5 C-5.3 5 -8.6 5 -12 5 C-12 4.67 -12 4.34 -12 4 C-14.97 3.505 -14.97 3.505 -18 3 C-18 2.67 -18 2.34 -18 2 C-11.92972642 -0.1583195 -6.40629424 -0.20852314 0 0 Z " fill="#DF82FF" transform="translate(162,155)"/>
<path d="M0 0 C0.89267578 0.01804688 1.78535156 0.03609375 2.70507812 0.0546875 C4.90863504 0.10182241 7.11002601 0.16759343 9.3125 0.25 C7.3125 2.25 7.3125 2.25 3.94140625 2.26953125 C1.89430651 2.1791294 -0.1460297 2.06092824 -2.18945312 1.90820312 C-4.44103191 1.77018723 -4.44103191 1.77018723 -7.6875 2.25 C-9.59755661 4.59253816 -9.59755661 4.59253816 -10.6875 7.25 C-12.875 8.5625 -12.875 8.5625 -14.6875 9.25 C-11.5275224 0.4992928 -8.99213741 -0.34205643 0 0 Z " fill="#E7E3FF" transform="translate(130.6875,177.75)"/>
<path d="M0 0 C0.33 1.32 0.66 2.64 1 4 C0.06027344 4.09087891 0.06027344 4.09087891 -0.8984375 4.18359375 C-1.71570313 4.26738281 -2.53296875 4.35117188 -3.375 4.4375 C-4.18710938 4.51871094 -4.99921875 4.59992188 -5.8359375 4.68359375 C-8.04272805 4.89090114 -8.04272805 4.89090114 -10 6 C-9.67 4.35 -9.34 2.7 -9 1 C-5.8035914 -0.06546953 -3.34252724 -0.07427838 0 0 Z " fill="#A73EFF" transform="translate(117,234)"/>
<path d="M0 0 C0.556875 0.226875 1.11375 0.45375 1.6875 0.6875 C0.9765625 2.609375 0.9765625 2.609375 -0.3125 4.6875 C-2.4765625 5.515625 -2.4765625 5.515625 -4.9375 5.9375 C-6.16339844 6.16179687 -6.16339844 6.16179687 -7.4140625 6.390625 C-8.04054687 6.48859375 -8.66703125 6.5865625 -9.3125 6.6875 C-7.43726628 2.53273906 -4.98440644 -0.67356844 0 0 Z " fill="#D55CFF" transform="translate(141.3125,182.3125)"/>
<path d="M0 0 C1.98 0 3.96 0 6 0 C6.042721 1.66611905 6.04063832 3.33382885 6 5 C5 6 5 6 2.4375 6.0625 C1.2309375 6.0315625 1.2309375 6.0315625 0 6 C0 4.02 0 2.04 0 0 Z " fill="#FCF9FF" transform="translate(308,233)"/>
<path d="M0 0 C0.33 0 0.66 0 1 0 C1 1.65 1 3.3 1 5 C1.99 5 2.98 5 4 5 C3.34 6.98 2.68 8.96 2 11 C1.67 9.68 1.34 8.36 1 7 C0.34 7 -0.32 7 -1 7 C-1 7.66 -1 8.32 -1 9 C-2.65 9.66 -4.3 10.32 -6 11 C-5.47599609 10.18595703 -5.47599609 10.18595703 -4.94140625 9.35546875 C-4.25884766 8.28232422 -4.25884766 8.28232422 -3.5625 7.1875 C-3.11003906 6.47980469 -2.65757812 5.77210938 -2.19140625 5.04296875 C-0.85913661 2.91865448 -0.85913661 2.91865448 0 0 Z " fill="#A97BFF" transform="translate(173,204)"/>
<path d="M0 0 C0.33 0 0.66 0 1 0 C1.28795955 7.80690329 1.05169836 15.05423138 -3 22 C-4.53445094 18.93109813 -3.54984289 16.29905734 -3 13 C-2.34 13 -1.68 13 -1 13 C-0.67 8.71 -0.34 4.42 0 0 Z " fill="#988AFF" transform="translate(183,176)"/>
<path d="M0 0 C0.99 0.33 1.98 0.66 3 1 C3 1.66 3 2.32 3 3 C6.3 3.33 9.6 3.66 13 4 C13 4.66 13 5.32 13 6 C4.85614849 6.62645012 4.85614849 6.62645012 1.4375 4.125 C0 2 0 2 0 0 Z " fill="#C327FF" transform="translate(105,249)"/>
<path d="M0 0 C0.66 0 1.32 0 2 0 C2.66 2.64 3.32 5.28 4 8 C2.02 8 0.04 8 -2 8 C-1.34 5.36 -0.68 2.72 0 0 Z " fill="#F0D9FF" transform="translate(209,234)"/>
<path d="M0 0 C0.78375 0.04125 1.5675 0.0825 2.375 0.125 C1.75625 0.3725 1.1375 0.62 0.5 0.875 C-1.97568687 2.33128639 -2.57625002 3.50312506 -3.625 6.125 C-2.965 6.125 -2.305 6.125 -1.625 6.125 C-1.625 8.105 -1.625 10.085 -1.625 12.125 C-2.945 12.455 -4.265 12.785 -5.625 13.125 C-4.965 12.795 -4.305 12.465 -3.625 12.125 C-3.72039062 11.42632812 -3.81578125 10.72765625 -3.9140625 10.0078125 C-4.02492188 9.09773437 -4.13578125 8.18765625 -4.25 7.25 C-4.36601563 6.34507812 -4.48203125 5.44015625 -4.6015625 4.5078125 C-4.60929687 3.72148437 -4.61703125 2.93515625 -4.625 2.125 C-2.625 0.125 -2.625 0.125 0 0 Z " fill="#EDB9FF" transform="translate(119.625,147.875)"/>
<path d="M0 0 C1.875 0.625 1.875 0.625 4 2 C5.66783878 5.75263725 6.24045528 8.91226018 6 13 C4.68 13 3.36 13 2 13 C1.92921158 10.45161701 1.87619655 8.37141036 2.6875 5.9375 C3.2469602 3.836315 3.2469602 3.836315 1.5625 1.75 C1.046875 1.1725 0.53125 0.595 0 0 Z " fill="#DE7CFF" transform="translate(123,145)"/>
<path d="M0 0 C3.63 0 7.26 0 11 0 C11 0.66 11 1.32 11 2 C10.34 2 9.68 2 9 2 C9 2.66 9 3.32 9 4 C6.69 4 4.38 4 2 4 C1.34 2.68 0.68 1.36 0 0 Z " fill="#C590FF" transform="translate(108,248)"/>
<path d="M0 0 C0.66 0.33 1.32 0.66 2 1 C1 4 1 4 -1 5 C-2.37548156 5.08308638 -3.75485796 5.10736016 -5.1328125 5.09765625 C-5.93847656 5.09443359 -6.74414062 5.09121094 -7.57421875 5.08789062 C-8.41597656 5.07951172 -9.25773437 5.07113281 -10.125 5.0625 C-10.97449219 5.05798828 -11.82398437 5.05347656 -12.69921875 5.04882812 C-14.79950909 5.03702874 -16.8997633 5.01909306 -19 5 C-19 4.67 -19 4.34 -19 4 C-17.87980469 3.93941406 -16.75960937 3.87882813 -15.60546875 3.81640625 C-14.13280016 3.73198576 -12.66014456 3.64733851 -11.1875 3.5625 C-10.44951172 3.52318359 -9.71152344 3.48386719 -8.95117188 3.44335938 C-5.76928658 3.25618965 -3.03837622 3.01279207 0 2 C0 1.34 0 0.68 0 0 Z " fill="#CED6FF" transform="translate(80,161)"/>
<path d="M0 0 C0.33 0.66 0.66 1.32 1 2 C-1.64 2 -4.28 2 -7 2 C-7.66 4.64 -8.32 7.28 -9 10 C-9.33 10 -9.66 10 -10 10 C-10.3125 6.6875 -10.3125 6.6875 -10 3 C-6.78917035 0.15612231 -4.21520395 -0.3613032 0 0 Z " fill="#9E7FFF" transform="translate(160,237)"/>
<path d="M0 0 C0.66 0 1.32 0 2 0 C1.1875 3.4375 1.1875 3.4375 0 7 C-0.99 7.33 -1.98 7.66 -3 8 C-3.33 9.98 -3.66 11.96 -4 14 C-4.66 13.67 -5.32 13.34 -6 13 C-4.77234554 8.93929678 -3.28238136 5.57242299 -1 2 C-0.67 1.34 -0.34 0.68 0 0 Z " fill="#D34FFF" transform="translate(113,184)"/>
<path d="M0 0 C2.05078125 0.03255208 4.1015625 0.06510417 6.15234375 0.09765625 C5.16234375 0.42765625 4.17234375 0.75765625 3.15234375 1.09765625 C2.82234375 2.08765625 2.49234375 3.07765625 2.15234375 4.09765625 C0.50234375 4.09765625 -1.14765625 4.09765625 -2.84765625 4.09765625 C-2.84765625 0.15051037 -2.84765625 0.15051037 0 0 Z " fill="#D15CFF" transform="translate(146.84765625,176.90234375)"/>
<path d="M0 0 C0.66 0.33 1.32 0.66 2 1 C1.67 1.33 1.34 1.66 1 2 C0.76807135 3.51469448 0.58784762 5.03754562 0.4375 6.5625 C0.35371094 7.38878906 0.26992188 8.21507812 0.18359375 9.06640625 C0.12300781 9.70449219 0.06242187 10.34257812 0 11 C-0.99 10.34 -1.98 9.68 -3 9 C-3.1875 5.875 -3.1875 5.875 -3 3 C-2.34 3 -1.68 3 -1 3 C-0.67 2.01 -0.34 1.02 0 0 Z " fill="#B9C8FF" transform="translate(59,152)"/>
<path d="M0 0 C0.8971875 0.309375 0.8971875 0.309375 1.8125 0.625 C-1.79707611 3.9160841 -4.31387153 5.17163921 -9.1875 5.625 C-3.21691176 -0.55147059 -3.21691176 -0.55147059 0 0 Z " fill="#EAB3FF" transform="translate(161.1875,165.375)"/>
<path d="M0 0 C0.33 0 0.66 0 1 0 C1.125 6.75 1.125 6.75 0 9 C1.98 9 3.96 9 6 9 C6 9.33 6 9.66 6 10 C3.69 10 1.38 10 -1 10 C-1.66 8.35 -2.32 6.7 -3 5 C-2.34 4.34 -1.68 3.68 -1 3 C-0.67 2.01 -0.34 1.02 0 0 Z " fill="#DA6DFF" transform="translate(110,192)"/>
<path d="M0 0 C1.57726156 3.15452313 0.66986721 5.59484166 0 9 C-0.88285524 11.41033493 -1.90727781 13.67202664 -3 16 C-4.57726156 12.84547687 -3.66986721 10.40515834 -3 7 C-2.11714476 4.58966507 -1.09272219 2.32797336 0 0 Z " fill="#9C85FF" transform="translate(178,187)"/>
<path d="M0 0 C0.66 0.33 1.32 0.66 2 1 C1.67 1.66 1.34 2.32 1 3 C1.99 3.66 2.98 4.32 4 5 C2.68 5.99 1.36 6.98 0 8 C-0.66 7.67 -1.32 7.34 -2 7 C-1.67 6.67 -1.34 6.34 -1 6 C-1.66 5.67 -2.32 5.34 -3 5 C-1.125 1.125 -1.125 1.125 0 0 Z " fill="#DB7FFF" transform="translate(143,177)"/>
<path d="M0 0 C1.6415049 3.2830098 0.51888624 6.42545033 0 10 C-0.66 10 -1.32 10 -2 10 C-2 10.99 -2 11.98 -2 13 C-2.99 13 -3.98 13 -5 13 C-5 12.34 -5 11.68 -5 11 C-4.34 11 -3.68 11 -3 11 C-2.86722656 10.28972656 -2.73445312 9.57945312 -2.59765625 8.84765625 C-2.42105469 7.92855469 -2.24445313 7.00945312 -2.0625 6.0625 C-1.88847656 5.14597656 -1.71445313 4.22945312 -1.53515625 3.28515625 C-1 1 -1 1 0 0 Z " fill="#D3BCFF" transform="translate(178,204)"/>
<path d="M0 0 C0 0.66 0 1.32 0 2 C-3.6441774 4.4294516 -5.71241272 4.16179575 -10 4 C-10 3.34 -10 2.68 -10 2 C-3.375 0 -3.375 0 0 0 Z " fill="#D14AFF" transform="translate(120,197)"/>
<path d="M0 0 C0.66 0.33 1.32 0.66 2 1 C0.52307692 6.66153846 0.52307692 6.66153846 -2.125 8.375 C-2.74375 8.58125 -3.3625 8.7875 -4 9 C-3.01 7.02 -2.02 5.04 -1 3 C-2.98 3 -4.96 3 -7 3 C-7 2.67 -7 2.34 -7 2 C-4.69 2 -2.38 2 0 2 C0 1.34 0 0.68 0 0 Z " fill="#DE7DFF" transform="translate(168,156)"/>
<path d="M0 0 C0.33 1.32 0.66 2.64 1 4 C-0.65 4.33 -2.3 4.66 -4 5 C-3.6875 3.0625 -3.6875 3.0625 -3 1 C-2.01 0.67 -1.02 0.34 0 0 Z " fill="#FAF1FF" transform="translate(329,242)"/>
<path d="M0 0 C0.66 0 1.32 0 2 0 C2 1.32 2 2.64 2 4 C1.01 4 0.02 4 -1 4 C-1.33 5.32 -1.66 6.64 -2 8 C-2.33 5.69 -2.66 3.38 -3 1 C-2.01 1.495 -2.01 1.495 -1 2 C-0.67 1.34 -0.34 0.68 0 0 Z " fill="#9C76FF" transform="translate(101,200)"/>
<path d="M0 0 C2.25 0.25 2.25 0.25 4 1 C2.02 2.32 0.04 3.64 -2 5 C-2.66 4.67 -3.32 4.34 -4 4 C-2.25 1.9375 -2.25 1.9375 0 0 Z " fill="#D045FF" transform="translate(127,190)"/>
<path d="M0 0 C2.475 0.495 2.475 0.495 5 1 C4.1875 2.9375 4.1875 2.9375 3 5 C2.01 5.33 1.02 5.66 0 6 C0 4.02 0 2.04 0 0 Z " fill="#C954FF" transform="translate(115,176)"/>
<path d="M0 0 C0.66 0.33 1.32 0.66 2 1 C1.34 1.66 0.68 2.32 0 3 C-0.70710678 4.64991582 -1.37943989 6.31562256 -2 8 C-2.66 7.67 -3.32 7.34 -4 7 C-3.67 6.34 -3.34 5.68 -3 5 C-3.66 4.67 -4.32 4.34 -5 4 C-3.35 2.68 -1.7 1.36 0 0 Z " fill="#CF61FF" transform="translate(163,165)"/>
<path d="M0 0 C0.99 0.33 1.98 0.66 3 1 C3 1.66 3 2.32 3 3 C4.32 3 5.64 3 7 3 C7 3.66 7 4.32 7 5 C5.35 5 3.7 5 2 5 C1.34 3.35 0.68 1.7 0 0 Z " fill="#CF43FF" transform="translate(126,157)"/>
<path d="M0 0 C0.66 0.33 1.32 0.66 2 1 C0.12050295 4.57104439 -1.17053157 6.54744301 -5 8 C-3.8141763 4.62496331 -2.72426311 2.35277269 0 0 Z " fill="#F5DCFF" transform="translate(121,179)"/>
</svg>
